<svg width="74" height="74" viewBox="0 0 74 74" fill="none" xmlns="http://www.w3.org/2000/svg">
<g clip-path="url(#clip0_91_877)">
<path d="M56.6683 0H17.3336C14.7183 0 12.5942 2.12726 12.5942 4.74216V56.7187C12.5942 59.3308 14.7199 61.4552 17.3336 61.4552H31.0113L31.8378 58.8213H17.3332C16.1711 58.8213 15.2277 57.878 15.2277 56.7187V4.74216C15.2277 3.57886 16.1711 2.6339 17.3332 2.6339H56.6679C57.8271 2.6339 58.7704 3.57886 58.7704 4.74216V56.7187C58.7704 57.878 57.8271 58.8213 56.6679 58.8213H55.7593L56.7536 61.4552C59.3264 61.4103 61.406 59.3021 61.406 56.7187V4.74216C61.4044 2.12564 59.2803 0 56.6683 0ZM60.772 56.7187C60.772 58.7938 59.1962 60.5377 57.1802 60.7909L56.6751 59.4565C58.1817 59.4509 59.4045 58.2237 59.4045 56.7171V4.74216C59.4045 3.22991 58.1773 1.99827 56.6679 1.99827H17.3332C15.8237 1.99827 14.5937 3.22991 14.5937 4.74216V56.7187C14.5937 58.2281 15.8237 59.4581 17.3332 59.4581H30.975L30.5468 60.8228H17.3332C15.07 60.8228 13.2262 58.9834 13.2262 56.7187V4.74216C13.2262 2.47621 15.0684 0.632396 17.3332 0.632396H56.6679C58.9298 0.632396 60.772 2.47459 60.772 4.74216V56.7187Z" fill="#ACA79C" stroke="#ACA79C" stroke-width="0.3"/>
<path d="M43.2493 38.3987C38.2928 38.3987 34.2627 42.4316 34.2627 47.3893C34.2627 52.3441 38.2928 56.3771 43.2493 56.3771C48.2057 56.3771 52.2387 52.3441 52.2387 47.3893C52.2387 42.4316 48.2057 38.3987 43.2493 38.3987ZM43.2493 55.7435C38.6434 55.7435 34.8967 51.9956 34.8967 47.3893C34.8967 42.783 38.6446 39.0323 43.2493 39.0323C47.8539 39.0323 51.6018 42.783 51.6018 47.3893C51.6018 51.9956 47.8556 55.7435 43.2493 55.7435Z" fill="#ACA79C" stroke="#ACA79C" stroke-width="0.3"/>
<path d="M52.1937 56.8707L52.4585 56.6277C53.5757 55.5093 54.0791 53.9562 53.839 52.376L53.826 52.285L53.8608 52.2025C54.1026 51.6368 54.3052 51.0073 54.4612 50.3227L54.4803 50.2317L54.5482 50.1695C55.4859 49.2346 56.0067 47.9844 56.0067 46.6529C56.0067 44.8645 55.069 43.258 53.4916 42.3595L53.4164 42.3147L53.3732 42.235C53.3008 42.1048 53.2211 41.9803 53.1386 41.8557L53.0646 41.7429L53.0327 41.601C53.0384 40.2784 52.5232 39.0326 51.5827 38.0905C50.7158 37.2207 49.548 36.7113 48.2962 36.6579L48.1256 36.6494L48.0374 36.5034C47.1256 34.9839 45.5382 34.0765 43.793 34.0765C42.0305 34.0765 40.4386 34.9895 39.5357 36.5208L39.4038 36.7436L39.1592 36.6583C37.4124 36.0607 35.339 36.5398 34.0451 37.8317C32.779 39.0977 32.3072 40.9718 32.815 42.7186L32.8482 42.8342L32.6282 43.3061L32.5502 43.3627C31.2478 44.3121 30.4998 45.7706 30.4998 47.3653C30.4998 48.7862 31.099 50.1019 32.1871 51.0627L32.255 51.1221L32.2809 51.2103C32.3792 51.5386 32.498 51.8657 32.6412 52.2074L32.6731 52.287L32.6602 52.3752C32.4257 53.9643 32.9278 55.5125 34.0434 56.6281C34.3431 56.9277 34.6787 57.1824 35.0737 57.4081L35.2921 57.5354L32.1665 67.5333C32.126 67.6635 32.1721 67.8054 32.2809 67.8834C32.3893 67.9615 32.534 67.9687 32.6484 67.8919L36.6325 65.1901L38.3445 70.1955C38.3877 70.3257 38.5094 70.4098 38.6453 70.4098H38.6481C38.7856 70.4098 38.9073 70.3188 38.9477 70.1898L42.0907 60.1758L42.3774 60.2466C43.3482 60.4811 44.347 60.4131 45.2774 60.0484L45.5754 59.93L50.8513 73.7929C50.8978 73.9175 51.0146 73.9999 51.1464 73.9999C51.1509 73.9999 51.1537 73.9999 51.1565 73.9999C51.2924 73.9943 51.4113 73.9045 51.4505 73.7743L53.0396 68.5461L56.8105 70.7341C56.9261 70.7992 57.0725 70.7874 57.1724 70.7009C57.2751 70.6156 57.3127 70.4753 57.265 70.3479L52.1937 56.8707ZM53.0084 67.7916C52.9243 67.7439 52.8204 67.735 52.7351 67.7714C52.6441 67.8074 52.5758 67.8814 52.5471 67.9756L51.1145 72.702L46.0541 59.4047C46.0238 59.3251 45.9631 59.2628 45.8863 59.2296C45.8471 59.2094 45.801 59.2005 45.7589 59.2005C45.7197 59.2005 45.6793 59.209 45.6433 59.2236L45.0457 59.4581C44.2382 59.7751 43.3757 59.8341 42.5278 59.6303L41.9532 59.4912C41.7911 59.4553 41.6249 59.5418 41.5756 59.7027L38.6336 69.0754L37.1011 64.5896C37.0691 64.497 36.9956 64.423 36.9013 64.3915C36.8071 64.36 36.7016 64.3741 36.6219 64.4307L33.0463 66.856L35.9766 57.4804C36.0215 57.3385 35.9621 57.1836 35.8319 57.1101L35.3903 56.8553C35.0458 56.6572 34.7535 56.4372 34.4947 56.1797C33.5222 55.2044 33.0807 53.8543 33.2893 52.4694L33.3168 52.2943C33.3253 52.2349 33.3197 52.1758 33.2966 52.1221L33.2271 51.9615C33.0997 51.6562 32.9853 51.3481 32.8898 51.0267L32.8393 50.8544C32.8203 50.7978 32.79 50.7473 32.7467 50.7097L32.6092 50.588C31.6598 49.7485 31.1346 48.6038 31.1346 47.3653C31.1346 45.9776 31.7872 44.7027 32.9262 43.8779L33.0694 43.7735C33.1126 43.7404 33.1474 43.6995 33.1692 43.649L33.4745 42.9936C33.5065 42.9256 33.5137 42.846 33.4919 42.7736L33.4268 42.5451C32.9812 41.0183 33.3937 39.3848 34.4947 38.2805C35.6192 37.1576 37.4339 36.7424 38.9546 37.2616L39.4439 37.4282C39.583 37.4759 39.7419 37.418 39.8199 37.2878L40.0819 36.8435C40.872 35.5079 42.2597 34.7089 43.7938 34.7089C45.3133 34.7089 46.6966 35.5019 47.4968 36.8289L47.6719 37.1229C47.7253 37.2138 47.8223 37.2705 47.9295 37.2749L48.2679 37.2895C49.3633 37.3372 50.3794 37.7816 51.1347 38.5385C51.9551 39.3577 52.4052 40.443 52.4039 41.6584L52.4573 41.9317C52.4646 41.9738 52.482 42.0114 52.5038 42.0446L52.6053 42.2023C52.6793 42.3151 52.7529 42.425 52.8152 42.5407L52.9021 42.6956C52.9312 42.7489 52.9745 42.791 53.025 42.8229L53.1783 42.9111C54.5502 43.6967 55.3734 45.0962 55.3734 46.6533C55.3734 47.8154 54.9206 48.9035 54.0985 49.7198L53.9667 49.8472C53.9263 49.8893 53.8972 49.9426 53.8826 50.0021L53.8406 50.18C53.6946 50.8241 53.505 51.4201 53.2749 51.9526L53.207 52.1204C53.1823 52.1738 53.1766 52.2332 53.1851 52.2927L53.2142 52.4706C53.4225 53.8526 52.9842 55.204 52.019 56.1708L51.6082 56.55C51.5128 56.6382 51.4808 56.7757 51.5241 56.8945L56.3605 69.7373L53.0084 67.7916Z" fill="#ACA79C" stroke="#ACA79C" stroke-width="0.3"/>
<path d="M49.8572 10.7794H24.1711V12.047H49.8572V10.7794Z" fill="#ACA79C" stroke="#ACA79C" stroke-width="0.3"/>
<path d="M49.8572 17.4374H24.1711V18.7066H49.8572V17.4374Z" fill="#ACA79C" stroke="#ACA79C" stroke-width="0.3"/>
<circle cx="43" cy="47" r="5" fill="#ACA79C"/>
</g>
<defs>
<clipPath id="clip0_91_877">
<rect width="74" height="74" fill="white"/>
</clipPath>
</defs>
</svg>
