<svg width="70" height="70" viewBox="0 0 70 70" fill="none" xmlns="http://www.w3.org/2000/svg">
<rect width="70" height="70" rx="5" fill="#1C1912"/>
<path fill-rule="evenodd" clip-rule="evenodd" d="M16.9551 13.7627H52.9999C53.5521 13.7627 53.9999 14.2104 53.9999 14.7627V56.2373C53.9999 56.7896 53.5521 57.2373 52.9999 57.2373H16.9551C16.4028 57.2373 15.9551 56.7896 15.9551 56.2373V14.7627C15.9551 14.2104 16.4028 13.7627 16.9551 13.7627ZM14.9551 14.7627C14.9551 13.6581 15.8505 12.7627 16.9551 12.7627H52.9999C54.1044 12.7627 54.9999 13.6581 54.9999 14.7627V56.2373C54.9999 57.3418 54.1044 58.2373 52.9999 58.2373H16.9551C15.8505 58.2373 14.9551 57.3418 14.9551 56.2373V14.7627ZM31.602 24.6404C31.602 27.6492 29.1629 30.0883 26.1541 30.0883C23.1453 30.0883 20.7062 27.6492 20.7062 24.6404C20.7062 21.6316 23.1453 19.1925 26.1541 19.1925C29.1629 19.1925 31.602 21.6316 31.602 24.6404ZM32.602 24.6404C32.602 28.2015 29.7151 31.0883 26.1541 31.0883C22.593 31.0883 19.7062 28.2015 19.7062 24.6404C19.7062 21.0793 22.593 18.1925 26.1541 18.1925C29.7151 18.1925 32.602 21.0793 32.602 24.6404ZM43.4615 28.0521C45.1584 28.0521 46.5339 26.6766 46.5339 24.9797C46.5339 23.2829 45.1584 21.9074 43.4615 21.9074C41.7647 21.9074 40.3892 23.2829 40.3892 24.9797C40.3892 26.6766 41.7647 28.0521 43.4615 28.0521ZM43.4615 29.0521C45.7106 29.0521 47.5339 27.2288 47.5339 24.9797C47.5339 22.7306 45.7106 20.9074 43.4615 20.9074C41.2124 20.9074 39.3892 22.7306 39.3892 24.9797C39.3892 27.2288 41.2124 29.0521 43.4615 29.0521ZM28.8871 43.3053C28.8871 45.0021 27.5115 46.3777 25.8147 46.3777C24.1179 46.3777 22.7424 45.0021 22.7424 43.3053C22.7424 41.6085 24.1179 40.233 25.8147 40.233C27.5115 40.233 28.8871 41.6085 28.8871 43.3053ZM29.8871 43.3053C29.8871 45.5544 28.0638 47.3777 25.8147 47.3777C23.5656 47.3777 21.7424 45.5544 21.7424 43.3053C21.7424 41.0562 23.5656 39.233 25.8147 39.233C28.0638 39.233 29.8871 41.0562 29.8871 43.3053ZM43.8009 47.7351C46.8097 47.7351 49.2488 45.296 49.2488 42.2873C49.2488 39.2785 46.8097 36.8394 43.8009 36.8394C40.7921 36.8394 38.353 39.2785 38.353 42.2873C38.353 45.296 40.7921 47.7351 43.8009 47.7351ZM43.8009 48.7351C47.362 48.7351 50.2488 45.8483 50.2488 42.2873C50.2488 38.7262 47.362 35.8394 43.8009 35.8394C40.2398 35.8394 37.353 38.7262 37.353 42.2873C37.353 45.8483 40.2398 48.7351 43.8009 48.7351ZM29.8871 52.8075H24.4573V54.8436H29.8871V52.8075ZM31.9232 52.8074H37.353V54.8436H31.9232V52.8074ZM44.819 52.8074H39.3892V54.8436H44.819V52.8074Z" fill="white"/>
</svg>
