<svg width="78" height="75" viewBox="0 0 78 75" fill="none" xmlns="http://www.w3.org/2000/svg">
<path d="M27.9236 27.0096L2 29.8376L20.8535 47.7484L15.6688 73.2006L38.7643 60.4745L61.8599 73.2006L56.2038 47.7484L76 29.8376L49.6051 26.5382L38.7643 2.5L27.9236 27.0096Z" stroke="#ACA79C" stroke-width="1.3"/>
<path d="M39.4316 39.856C41.5223 39.856 43.1543 40.4213 44.3276 41.552C45.5223 42.6613 46.1196 44.3253 46.1196 46.544C46.1196 49.168 45.341 51.1093 43.7836 52.368C42.2476 53.6267 40.093 54.256 37.3196 54.256C36.4236 54.256 35.4423 54.128 34.3756 53.872C33.309 53.616 32.4876 53.3173 31.9116 52.976L32.9356 50.192C34.1516 50.6613 35.4636 50.896 36.8716 50.896C38.2796 50.896 39.3356 50.608 40.0396 50.032C40.7436 49.456 41.0956 48.528 41.0956 47.248C41.0956 45.52 40.6903 44.3787 39.8796 43.824C39.2396 43.376 38.4716 43.152 37.5756 43.152C36.6796 43.152 35.517 43.2587 34.0876 43.472L32.8076 41.104H32.7756V31.92H44.5836V35.568H36.7756V40.048C37.4583 39.92 38.3436 39.856 39.4316 39.856Z" fill="#ACA79C"/>
</svg>
