<svg width="70" height="70" viewBox="0 0 70 70" fill="none" xmlns="http://www.w3.org/2000/svg">
<rect width="70" height="70" rx="5" fill="#1C1912"/>
<path fill-rule="evenodd" clip-rule="evenodd" d="M21.3089 10H19.7266L21.0216 10.9092L24.3839 13.27H21.3089H19.7266L21.0216 14.1792L24.3839 16.54H21.3089H19.7266L21.0216 17.4493L24.2469 19.7139H18.0388H17.5388V20.2139V28.4851V34.8137H16.5H16V35.3137V37.622V37.6543L16.0042 37.6863L17.9235 52.4656V58.7809V59.2809H18.4235H51.7008H52.2008V58.7809V52.4672L54.216 37.6895L54.2206 37.6559V37.622V35.3137V34.8137H53.7206H52.2008V28.4851V20.2139V19.7139H51.7008H46.0024L48.8405 17.4296L49.9457 16.54H48.527H45.8829L48.8405 14.1595L49.9457 13.27H48.527H45.8829L48.8405 10.8895L49.9457 10H48.527H21.3089ZM25.9872 13.1738L22.8911 11H47.1084L44.4075 13.1738H25.9872ZM22.8911 14.27L25.9872 16.4439H44.4075L47.1084 14.27H22.8911ZM25.6712 20.7139L25.6712 20.7139H25.8292H44.5837H44.76L44.76 20.7139H51.2008V27.9851H42.8525V28.8938C42.8317 28.8668 42.8108 28.8399 42.7897 28.8131C41.1533 26.7335 38.6029 25.0998 35.0622 25.0998C31.4847 25.0998 29.0461 26.5167 27.4642 28.3731V27.9851H18.5388V20.7139H25.6712ZM45.0853 34.8137C45.0385 33.0747 44.3351 30.8582 42.9222 28.9851H51.2008V34.8137H45.0853ZM42.0038 29.4315C43.3742 31.1731 44.0362 33.2549 44.0849 34.8137H41.6955C41.5893 33.6842 41.0985 32.3343 40.2008 31.1989C39.119 29.8305 37.4299 28.7546 35.0923 28.7546C32.4795 28.7546 30.7762 29.9012 29.7473 31.3236C28.9146 32.4748 28.5295 33.796 28.4323 34.8137H25.9487C26.0069 33.4067 26.5171 31.345 27.7858 29.5827C29.1606 27.6731 31.4341 26.0998 35.0622 26.0998C38.2566 26.0998 40.5311 27.5598 42.0038 29.4315ZM29.4376 34.8137C29.5336 33.9717 29.8638 32.8688 30.5575 31.9097C31.4097 30.7315 32.8192 29.7546 35.0923 29.7546C37.0856 29.7546 38.499 30.6586 39.4164 31.819C40.1764 32.7804 40.5852 33.9053 40.6901 34.8137H29.4376ZM26.9743 28.9985C25.5691 30.9503 25.0057 33.2253 24.9481 34.8137H18.5388V28.9851H26.9839L26.9743 28.9985ZM44.4075 19.7139L47.1084 17.54H22.8911L25.9872 19.7139H44.4075ZM18.9235 58.2809V52.9332H51.2008V58.2809H18.9235ZM53.1478 38.122L51.2644 51.9332H18.8628L17.0691 38.122H53.1478ZM17 35.8137V37.122H53.2206V35.8137H51.7008H18.0388H17ZM41.6022 22.7336H42.8525V21.7336H41.6022V22.7336ZM44.3914 22.7336H45.6417V21.7336H44.3914V22.7336ZM47.2767 22.7336H48.7194V21.7336H47.2767V22.7336ZM21.3089 21.926H20.8089V22.426V26.0807V26.5807H21.3089H27.7527H28.2527V26.0807V22.426V21.926H27.7527H21.3089ZM21.8089 25.5807V22.926H27.2527V25.5807H21.8089Z" fill="white"/>
</svg>
