<svg width="70" height="70" viewBox="0 0 70 70" fill="none" xmlns="http://www.w3.org/2000/svg">
<rect width="70" height="70" rx="5" fill="#1C1912"/>
<mask id="path-2-inside-1_94_5" fill="white">
<path fill-rule="evenodd" clip-rule="evenodd" d="M17 14C17 13.7239 17.2239 13.5 17.5 13.5H52.5C52.7761 13.5 53 13.7239 53 14V22V55.5C53 55.7761 52.7761 56 52.5 56H17.5C17.2239 56 17 55.7761 17 55.5V22V14ZM18 14.5V21.5H52V14.5H18ZM52 22.5H18V55H52V22.5ZM40.4332 33.9758C39.5479 32.9449 38.4849 32.2627 37.7969 31.9569L38.2031 31.0431C39.0151 31.404 40.2021 32.1717 41.1918 33.3242C42.1864 34.4823 43 36.052 43 38C43 39.9439 42.1897 41.5912 41.206 42.846C40.2244 44.098 39.0468 44.9904 38.2428 45.4371L37.7572 44.5629C38.4532 44.1763 39.5256 43.3686 40.419 42.229C41.3103 41.0922 42 39.6561 42 38C42 36.348 41.3136 35.001 40.4332 33.9758ZM35 51C42.1797 51 48 45.1797 48 38C48 30.8203 42.1797 25 35 25C27.8203 25 22 30.8203 22 38C22 45.1797 27.8203 51 35 51ZM35 52C42.732 52 49 45.732 49 38C49 30.268 42.732 24 35 24C27.268 24 21 30.268 21 38C21 45.732 27.268 52 35 52ZM22.75 19.5C23.7165 19.5 24.5 18.7165 24.5 17.75C24.5 16.7835 23.7165 16 22.75 16C21.7835 16 21 16.7835 21 17.75C21 18.7165 21.7835 19.5 22.75 19.5ZM30.5 17.75C30.5 18.7165 29.7165 19.5 28.75 19.5C27.7835 19.5 27 18.7165 27 17.75C27 16.7835 27.7835 16 28.75 16C29.7165 16 30.5 16.7835 30.5 17.75ZM46.75 19.5C47.7165 19.5 48.5 18.7165 48.5 17.75C48.5 16.7835 47.7165 16 46.75 16C45.7835 16 45 16.7835 45 17.75C45 18.7165 45.7835 19.5 46.75 19.5Z"/>
</mask>
<path fill-rule="evenodd" clip-rule="evenodd" d="M17 14C17 13.7239 17.2239 13.5 17.5 13.5H52.5C52.7761 13.5 53 13.7239 53 14V22V55.5C53 55.7761 52.7761 56 52.5 56H17.5C17.2239 56 17 55.7761 17 55.5V22V14ZM18 14.5V21.5H52V14.5H18ZM52 22.5H18V55H52V22.5ZM40.4332 33.9758C39.5479 32.9449 38.4849 32.2627 37.7969 31.9569L38.2031 31.0431C39.0151 31.404 40.2021 32.1717 41.1918 33.3242C42.1864 34.4823 43 36.052 43 38C43 39.9439 42.1897 41.5912 41.206 42.846C40.2244 44.098 39.0468 44.9904 38.2428 45.4371L37.7572 44.5629C38.4532 44.1763 39.5256 43.3686 40.419 42.229C41.3103 41.0922 42 39.6561 42 38C42 36.348 41.3136 35.001 40.4332 33.9758ZM35 51C42.1797 51 48 45.1797 48 38C48 30.8203 42.1797 25 35 25C27.8203 25 22 30.8203 22 38C22 45.1797 27.8203 51 35 51ZM35 52C42.732 52 49 45.732 49 38C49 30.268 42.732 24 35 24C27.268 24 21 30.268 21 38C21 45.732 27.268 52 35 52ZM22.75 19.5C23.7165 19.5 24.5 18.7165 24.5 17.75C24.5 16.7835 23.7165 16 22.75 16C21.7835 16 21 16.7835 21 17.75C21 18.7165 21.7835 19.5 22.75 19.5ZM30.5 17.75C30.5 18.7165 29.7165 19.5 28.75 19.5C27.7835 19.5 27 18.7165 27 17.75C27 16.7835 27.7835 16 28.75 16C29.7165 16 30.5 16.7835 30.5 17.75ZM46.75 19.5C47.7165 19.5 48.5 18.7165 48.5 17.75C48.5 16.7835 47.7165 16 46.75 16C45.7835 16 45 16.7835 45 17.75C45 18.7165 45.7835 19.5 46.75 19.5Z" fill="white"/>
<path d="M18 21.5H17V22.5H18V21.5ZM18 14.5V13.5H17V14.5H18ZM52 21.5V22.5H53V21.5H52ZM52 14.5H53V13.5H52V14.5ZM18 22.5V21.5H17V22.5H18ZM52 22.5H53V21.5H52V22.5ZM18 55H17V56H18V55ZM52 55V56H53V55H52ZM37.7969 31.9569L36.8831 31.5508L36.477 32.4646L37.3908 32.8707L37.7969 31.9569ZM40.4332 33.9758L39.6745 34.6273H39.6745L40.4332 33.9758ZM38.2031 31.0431L38.6092 30.1293L37.6954 29.7231L37.2893 30.637L38.2031 31.0431ZM41.1918 33.3242L41.9505 32.6727H41.9505L41.1918 33.3242ZM41.206 42.846L41.993 43.463L41.206 42.846ZM38.2428 45.4371L37.3687 45.9227L37.8543 46.7969L38.7285 46.3112L38.2428 45.4371ZM37.7572 44.5629L37.2715 43.6888L36.3974 44.1744L36.883 45.0486L37.7572 44.5629ZM40.419 42.229L39.632 41.612L40.419 42.229ZM17.5 12.5C16.6716 12.5 16 13.1716 16 14H18C18 14.2761 17.7761 14.5 17.5 14.5V12.5ZM52.5 12.5H17.5V14.5H52.5V12.5ZM54 14C54 13.1716 53.3284 12.5 52.5 12.5V14.5C52.2239 14.5 52 14.2761 52 14H54ZM54 22V14H52V22H54ZM54 55.5V22H52V55.5H54ZM52.5 57C53.3284 57 54 56.3284 54 55.5H52C52 55.2239 52.2239 55 52.5 55V57ZM17.5 57H52.5V55H17.5V57ZM16 55.5C16 56.3284 16.6716 57 17.5 57V55C17.7761 55 18 55.2239 18 55.5H16ZM16 22V55.5H18V22H16ZM16 14V22H18V14H16ZM19 21.5V14.5H17V21.5H19ZM52 20.5H18V22.5H52V20.5ZM51 14.5V21.5H53V14.5H51ZM18 15.5H52V13.5H18V15.5ZM18 23.5H52V21.5H18V23.5ZM19 55V22.5H17V55H19ZM52 54H18V56H52V54ZM51 22.5V55H53V22.5H51ZM37.3908 32.8707C37.9548 33.1214 38.8938 33.7181 39.6745 34.6273L41.1918 33.3242C40.2021 32.1718 39.0151 31.404 38.2031 31.0431L37.3908 32.8707ZM37.2893 30.637L36.8831 31.5508L38.7107 32.363L39.1169 31.4492L37.2893 30.637ZM41.9505 32.6727C40.8562 31.3985 39.5452 30.5453 38.6092 30.1293L37.7969 31.9569C38.485 32.2627 39.5479 32.9449 40.4332 33.9758L41.9505 32.6727ZM44 38C44 35.7558 43.0589 33.9635 41.9505 32.6727L40.4332 33.9758C41.3138 35.0012 42 36.3482 42 38H44ZM41.993 43.463C43.0691 42.0903 44 40.2317 44 38H42C42 39.656 41.3104 41.092 40.419 42.229L41.993 43.463ZM38.7285 46.3112C39.6405 45.8046 40.9233 44.8274 41.993 43.463L40.419 42.229C39.5256 43.3686 38.4532 44.1763 37.7572 44.5629L38.7285 46.3112ZM36.883 45.0486L37.3687 45.9227L39.117 44.9514L38.6313 44.0773L36.883 45.0486ZM39.632 41.612C38.8267 42.6392 37.8595 43.3621 37.2715 43.6888L38.2428 45.4371C39.0468 44.9904 40.2244 44.098 41.206 42.846L39.632 41.612ZM41 38C41 39.3685 40.4307 40.5933 39.632 41.612L41.206 42.846C42.1898 41.591 43 39.9437 43 38H41ZM39.6745 34.6273C40.4408 35.5195 41 36.6439 41 38H43C43 36.0522 42.1865 34.4825 41.1918 33.3242L39.6745 34.6273ZM47 38C47 44.6274 41.6274 50 35 50V52C42.732 52 49 45.732 49 38H47ZM35 26C41.6274 26 47 31.3726 47 38H49C49 30.268 42.732 24 35 24V26ZM23 38C23 31.3726 28.3726 26 35 26V24C27.268 24 21 30.268 21 38H23ZM35 50C28.3726 50 23 44.6274 23 38H21C21 45.732 27.268 52 35 52V50ZM48 38C48 45.1797 42.1797 51 35 51V53C43.2843 53 50 46.2843 50 38H48ZM35 25C42.1797 25 48 30.8203 48 38H50C50 29.7157 43.2843 23 35 23V25ZM22 38C22 30.8203 27.8203 25 35 25V23C26.7157 23 20 29.7157 20 38H22ZM35 51C27.8203 51 22 45.1797 22 38H20C20 46.2843 26.7157 53 35 53V51ZM23.5 17.75C23.5 18.1642 23.1642 18.5 22.75 18.5V20.5C24.2688 20.5 25.5 19.2688 25.5 17.75H23.5ZM22.75 17C23.1642 17 23.5 17.3358 23.5 17.75H25.5C25.5 16.2312 24.2688 15 22.75 15V17ZM22 17.75C22 17.3358 22.3358 17 22.75 17V15C21.2312 15 20 16.2312 20 17.75H22ZM22.75 18.5C22.3358 18.5 22 18.1642 22 17.75H20C20 19.2688 21.2312 20.5 22.75 20.5V18.5ZM28.75 20.5C30.2688 20.5 31.5 19.2688 31.5 17.75H29.5C29.5 18.1642 29.1642 18.5 28.75 18.5V20.5ZM26 17.75C26 19.2688 27.2312 20.5 28.75 20.5V18.5C28.3358 18.5 28 18.1642 28 17.75H26ZM28.75 15C27.2312 15 26 16.2312 26 17.75H28C28 17.3358 28.3358 17 28.75 17V15ZM31.5 17.75C31.5 16.2312 30.2688 15 28.75 15V17C29.1642 17 29.5 17.3358 29.5 17.75H31.5ZM47.5 17.75C47.5 18.1642 47.1642 18.5 46.75 18.5V20.5C48.2688 20.5 49.5 19.2688 49.5 17.75H47.5ZM46.75 17C47.1642 17 47.5 17.3358 47.5 17.75H49.5C49.5 16.2312 48.2688 15 46.75 15V17ZM46 17.75C46 17.3358 46.3358 17 46.75 17V15C45.2312 15 44 16.2312 44 17.75H46ZM46.75 18.5C46.3358 18.5 46 18.1642 46 17.75H44C44 19.2688 45.2312 20.5 46.75 20.5V18.5Z" fill="white" mask="url(#path-2-inside-1_94_5)"/>
</svg>
