<svg width="62" height="73" viewBox="0 0 62 73" fill="none" xmlns="http://www.w3.org/2000/svg">
<path fill-rule="evenodd" clip-rule="evenodd" d="M30.6908 1C23.1979 1 17.9341 4.45781 14.7877 9.25323C11.6539 14.0292 10.6284 20.1154 11.5379 25.408C12.7884 32.6849 19.1827 46.3379 30.3496 56.7629L30.7124 57.1016L31.0538 56.7413C34.1053 53.5206 38.4281 48.0164 42.1269 42.1258C45.8144 36.2533 48.9343 29.9155 49.4968 25.0452C50.2582 18.4522 48.8672 12.4457 45.6124 8.07485C42.3493 3.69284 37.2447 1 30.6908 1ZM12.5234 25.2387C11.653 20.1736 12.6408 14.3481 15.6237 9.80182C18.594 5.275 23.5502 2 30.6908 2C36.9461 2 41.7461 4.55716 44.8104 8.6721C47.8829 12.7982 49.2419 18.5356 48.5034 24.9304C47.9687 29.5604 44.9599 35.7337 41.28 41.594C37.7483 47.2185 33.6468 52.4798 30.6686 55.6899C19.8705 45.4443 13.72 32.2014 12.5234 25.2387ZM13.9536 44.5126C11.864 44.9149 9.45568 45.9116 7.29324 47.3228C5.13273 48.7327 3.17806 50.5824 2.03854 52.7167C0.890428 54.867 0.570662 57.312 1.71288 59.8328C2.84411 62.3293 5.37769 64.8295 9.77659 67.1957C20.5105 72.9695 33.6365 72.9582 43.8727 70.1507C48.9931 68.7463 53.4266 66.633 56.4969 64.1586C59.5504 61.6979 61.3561 58.7902 60.9416 55.8105C60.5159 52.7506 58.3737 50.2716 55.8418 48.4072C53.3012 46.5365 50.2941 45.2282 47.9837 44.5252L47.6926 45.4819C49.9211 46.16 52.8195 47.4236 55.2488 49.2125C57.6869 51.0077 59.5794 53.2761 59.9511 55.9483C60.2931 58.4066 58.8207 61.0016 55.8694 63.38C52.9351 65.7448 48.6374 67.807 43.6082 69.1863C33.5451 71.9463 20.6981 71.9349 10.2503 66.315C5.94899 64.0013 3.62813 61.6367 2.62373 59.4201C1.63032 57.2277 1.89375 55.111 2.92068 53.1876C3.95621 51.2481 5.76845 49.512 7.83975 48.1602C9.90912 46.8098 12.1975 45.869 14.1426 45.4945L13.9536 44.5126ZM38.5001 18.9878C38.5001 23.1299 35.1422 26.4878 31.0001 26.4878C26.8579 26.4878 23.5001 23.1299 23.5001 18.9878C23.5001 14.8457 26.8579 11.4878 31.0001 11.4878C35.1422 11.4878 38.5001 14.8457 38.5001 18.9878ZM39.5001 18.9878C39.5001 23.6822 35.6945 27.4878 31.0001 27.4878C26.3057 27.4878 22.5001 23.6822 22.5001 18.9878C22.5001 14.2934 26.3057 10.4878 31.0001 10.4878C35.6945 10.4878 39.5001 14.2934 39.5001 18.9878Z" fill="#626262"/>
<path d="M14.7877 9.25323L14.9131 9.33552L14.7877 9.25323ZM11.5379 25.408L11.6857 25.3826L11.5379 25.408ZM30.3496 56.7629L30.2472 56.8725L30.3496 56.7629ZM30.7124 57.1016L30.61 57.2112L30.7189 57.3128L30.8213 57.2047L30.7124 57.1016ZM31.0538 56.7413L31.1626 56.8445L31.0538 56.7413ZM42.1269 42.1258L41.9999 42.046L42.1269 42.1258ZM49.4968 25.0452L49.6458 25.0624L49.4968 25.0452ZM45.6124 8.07485L45.7327 7.98526L45.6124 8.07485ZM15.6237 9.80182L15.7492 9.88411L15.6237 9.80182ZM12.5234 25.2387L12.6713 25.2133L12.5234 25.2387ZM44.8104 8.6721L44.69 8.76169L44.8104 8.6721ZM48.5034 24.9304L48.3544 24.9132L48.5034 24.9304ZM41.28 41.594L41.153 41.5143L41.28 41.594ZM30.6686 55.6899L30.5654 55.7987L30.6754 55.9031L30.7786 55.7919L30.6686 55.6899ZM7.29324 47.3228L7.21126 47.1972L7.29324 47.3228ZM13.9536 44.5126L14.1008 44.4842L14.0725 44.3369L13.9252 44.3653L13.9536 44.5126ZM2.03854 52.7167L1.90622 52.646H1.90622L2.03854 52.7167ZM1.71288 59.8328L1.57625 59.8947H1.57625L1.71288 59.8328ZM9.77659 67.1957L9.70553 67.3278L9.77659 67.1957ZM43.8727 70.1507L43.9124 70.2954L43.8727 70.1507ZM56.4969 64.1586L56.5911 64.2754L56.4969 64.1586ZM60.9416 55.8105L61.0901 55.7899L60.9416 55.8105ZM55.8418 48.4072L55.7528 48.528L55.8418 48.4072ZM47.9837 44.5252L48.0273 44.3817L47.8838 44.338L47.8402 44.4815L47.9837 44.5252ZM47.6926 45.4819L47.5491 45.4382L47.5054 45.5817L47.6489 45.6254L47.6926 45.4819ZM55.2488 49.2125L55.1599 49.3333L55.2488 49.2125ZM59.9511 55.9483L59.8025 55.969L59.9511 55.9483ZM55.8694 63.38L55.7753 63.2632L55.8694 63.38ZM43.6082 69.1863L43.5685 69.0416L43.6082 69.1863ZM10.2503 66.315L10.3214 66.1829L10.2503 66.315ZM2.62373 59.4201L2.76036 59.3582H2.76036L2.62373 59.4201ZM2.92068 53.1876L3.053 53.2583L2.92068 53.1876ZM7.83975 48.1602L7.92173 48.2859H7.92173L7.83975 48.1602ZM14.1426 45.4945L14.171 45.6418L14.3183 45.6135L14.2899 45.4662L14.1426 45.4945ZM14.9131 9.33552C18.0331 4.58039 23.2507 1.15 30.6908 1.15V0.85C23.145 0.85 17.8351 4.33524 14.6622 9.17094L14.9131 9.33552ZM11.6857 25.3826C10.7821 20.1241 11.802 14.0771 14.9131 9.33552L14.6622 9.17094C11.5059 13.9814 10.4747 20.1067 11.39 25.4334L11.6857 25.3826ZM30.452 56.6532C19.3066 46.2483 12.9301 32.624 11.6857 25.3826L11.39 25.4334C12.6466 32.7457 19.0588 46.4274 30.2472 56.8725L30.452 56.6532ZM30.8148 56.9919L30.452 56.6532L30.2472 56.8725L30.61 57.2112L30.8148 56.9919ZM30.9449 56.6381L30.6035 56.9984L30.8213 57.2047L31.1626 56.8445L30.9449 56.6381ZM41.9999 42.046C38.3056 47.9294 33.9887 53.4255 30.9449 56.6381L31.1626 56.8445C34.2218 53.6157 38.5505 48.1035 42.254 42.2056L41.9999 42.046ZM49.3478 25.0279C48.7895 29.8623 45.6863 36.1753 41.9999 42.046L42.254 42.2056C45.9426 36.3312 49.0792 29.9688 49.6458 25.0624L49.3478 25.0279ZM45.4921 8.16443C48.7195 12.4985 50.1058 18.4647 49.3478 25.0279L49.6458 25.0624C50.4106 18.4397 49.0148 12.3928 45.7327 7.98526L45.4921 8.16443ZM30.6908 1.15C37.1999 1.15 42.2588 3.82249 45.4921 8.16443L45.7327 7.98526C42.4398 3.56319 37.2895 0.85 30.6908 0.85V1.15ZM15.4983 9.71954C12.4928 14.3002 11.4993 20.1649 12.3756 25.2641L12.6713 25.2133C11.8067 20.1823 12.7888 14.3959 15.7492 9.88411L15.4983 9.71954ZM30.6908 1.85C23.4974 1.85 18.495 5.15241 15.4983 9.71954L15.7492 9.88411C18.6929 5.39758 23.6031 2.15 30.6908 2.15V1.85ZM44.9307 8.58251C41.8366 4.42752 36.9909 1.85 30.6908 1.85V2.15C36.9013 2.15 41.6556 4.6868 44.69 8.76169L44.9307 8.58251ZM48.6524 24.9476C49.3944 18.5231 48.0305 12.7453 44.9307 8.58251L44.69 8.76169C47.7353 12.8511 49.0895 18.5481 48.3544 24.9132L48.6524 24.9476ZM41.4071 41.6738C45.0881 35.8117 48.1135 29.6136 48.6524 24.9476L48.3544 24.9132C47.8238 29.5071 44.8317 35.6558 41.153 41.5143L41.4071 41.6738ZM30.7786 55.7919C33.7637 52.5743 37.8708 47.3054 41.4071 41.6738L41.153 41.5143C37.6258 47.1316 33.5299 52.3853 30.5587 55.5879L30.7786 55.7919ZM12.3756 25.2641C13.5782 32.2621 19.7464 45.5333 30.5654 55.7987L30.7719 55.5811C19.9946 45.3552 13.8617 32.1408 12.6713 25.2133L12.3756 25.2641ZM7.37522 47.4484C9.5237 46.0463 11.914 45.058 13.9819 44.6599L13.9252 44.3653C11.814 44.7718 9.38766 45.7769 7.21126 47.1972L7.37522 47.4484ZM2.17086 52.7873C3.29478 50.6823 5.22808 48.8496 7.37522 47.4484L7.21126 47.1972C5.03737 48.6158 3.06134 50.4825 1.90622 52.646L2.17086 52.7873ZM1.84951 59.7709C0.729627 57.2994 1.04091 54.9037 2.17086 52.7873L1.90622 52.646C0.739951 54.8304 0.411697 57.3246 1.57625 59.8947L1.84951 59.7709ZM9.84765 67.0636C5.46338 64.7052 2.96171 62.2254 1.84951 59.7709L1.57625 59.8947C2.72651 62.4333 5.292 64.9537 9.70553 67.3278L9.84765 67.0636ZM43.833 70.006C33.6228 72.8064 20.5387 72.8143 9.84765 67.0636L9.70553 67.3278C20.4824 73.1247 33.6502 73.1099 43.9124 70.2954L43.833 70.006ZM56.4028 64.0418C53.3529 66.4997 48.9397 68.6054 43.833 70.006L43.9124 70.2954C49.0464 68.8873 53.5004 66.7662 56.5911 64.2754L56.4028 64.0418ZM60.793 55.8312C61.1966 58.7326 59.441 61.5934 56.4028 64.0418L56.5911 64.2754C59.6597 61.8024 61.5155 58.8478 61.0901 55.7899L60.793 55.8312ZM55.7528 48.528C58.2707 50.3821 60.3754 52.8295 60.793 55.8312L61.0901 55.7899C60.6564 52.6718 58.4767 50.1612 55.9307 48.2864L55.7528 48.528ZM47.94 44.6687C50.2382 45.368 53.2289 46.6695 55.7528 48.528L55.9307 48.2864C53.3734 46.4034 50.3501 45.0884 48.0273 44.3817L47.94 44.6687ZM47.8361 45.5256L48.1272 44.5689L47.8402 44.4815L47.5491 45.4382L47.8361 45.5256ZM55.3378 49.0917C52.8917 47.2905 49.977 46.0202 47.7362 45.3384L47.6489 45.6254C49.8651 46.2997 52.7472 47.5567 55.1599 49.3333L55.3378 49.0917ZM60.0997 55.9277C59.7199 53.1973 57.79 50.8973 55.3378 49.0917L55.1599 49.3333C57.5839 51.1181 59.4389 53.3549 59.8025 55.969L60.0997 55.9277ZM55.9636 63.4968C58.9303 61.1059 60.4525 58.4641 60.0997 55.9277L59.8025 55.969C60.1337 58.3492 58.7111 60.8973 55.7753 63.2632L55.9636 63.4968ZM43.6479 69.331C48.6908 67.9479 53.0088 65.878 55.9636 63.4968L55.7753 63.2632C52.8613 65.6116 48.5841 67.666 43.5685 69.0416L43.6479 69.331ZM10.1793 66.4471C20.67 72.0901 33.5588 72.0981 43.6479 69.331L43.5685 69.0416C33.5314 71.7945 20.7263 71.7797 10.3214 66.1829L10.1793 66.4471ZM2.48711 59.482C3.51052 61.7406 5.86329 64.1255 10.1793 66.4471L10.3214 66.1829C6.0347 63.8771 3.74573 61.5328 2.76036 59.3582L2.48711 59.482ZM2.78836 53.117C1.74323 55.0745 1.47139 57.2404 2.48711 59.482L2.76036 59.3582C1.78925 57.215 2.04427 55.1476 3.053 53.2583L2.78836 53.117ZM7.75778 48.0346C5.67309 49.3951 3.83949 51.1483 2.78836 53.117L3.053 53.2583C4.07294 51.348 5.86382 49.6288 7.92173 48.2859L7.75778 48.0346ZM14.1143 45.3472C12.1475 45.7259 9.84111 46.6751 7.75778 48.0346L7.92173 48.2859C9.97714 46.9445 12.2476 46.0122 14.171 45.6418L14.1143 45.3472ZM13.8063 44.5409L13.9953 45.5229L14.2899 45.4662L14.1008 44.4842L13.8063 44.5409ZM31.0001 26.6378C35.2251 26.6378 38.6501 23.2128 38.6501 18.9878H38.3501C38.3501 23.0471 35.0594 26.3378 31.0001 26.3378V26.6378ZM23.3501 18.9878C23.3501 23.2128 26.7751 26.6378 31.0001 26.6378V26.3378C26.9408 26.3378 23.6501 23.0471 23.6501 18.9878H23.3501ZM31.0001 11.3378C26.7751 11.3378 23.3501 14.7628 23.3501 18.9878H23.6501C23.6501 14.9285 26.9408 11.6378 31.0001 11.6378V11.3378ZM38.6501 18.9878C38.6501 14.7628 35.2251 11.3378 31.0001 11.3378V11.6378C35.0594 11.6378 38.3501 14.9285 38.3501 18.9878H38.6501ZM31.0001 27.6378C35.7773 27.6378 39.6501 23.7651 39.6501 18.9878H39.3501C39.3501 23.5994 35.6117 27.3378 31.0001 27.3378V27.6378ZM22.3501 18.9878C22.3501 23.7651 26.2228 27.6378 31.0001 27.6378V27.3378C26.3885 27.3378 22.6501 23.5994 22.6501 18.9878H22.3501ZM31.0001 10.3378C26.2228 10.3378 22.3501 14.2105 22.3501 18.9878H22.6501C22.6501 14.3762 26.3885 10.6378 31.0001 10.6378V10.3378ZM39.6501 18.9878C39.6501 14.2105 35.7773 10.3378 31.0001 10.3378V10.6378C35.6117 10.6378 39.3501 14.3762 39.3501 18.9878H39.6501Z" fill="#626262"/>
</svg>
