<svg width="277" height="61" viewBox="0 0 277 61" fill="none" xmlns="http://www.w3.org/2000/svg">
<path d="M94.7195 7.71744V15.0223H86.8364V37.1031H77.5277V15.0223H69.7285V7.71744H94.7195ZM109.069 18.0107C110.019 16.6549 111.179 15.5757 112.549 14.7733C113.919 13.9432 115.345 13.5282 116.826 13.5282V23.3649H114.184C112.423 23.3649 111.124 23.6693 110.285 24.278C109.474 24.8867 109.069 25.9659 109.069 27.5154V37.1031H99.7601V13.6942H109.069V18.0107ZM146.883 13.6942V37.1031H137.574V33.5336C136.847 34.6405 135.869 35.5397 134.639 36.2315C133.437 36.9232 131.997 37.2691 130.32 37.2691C127.608 37.2691 125.484 36.3698 123.946 34.5713C122.437 32.7727 121.682 30.3378 121.682 27.2664V13.6942H130.949V26.1042C130.949 27.211 131.242 28.0965 131.829 28.7606C132.444 29.397 133.255 29.7152 134.261 29.7152C135.296 29.7152 136.106 29.397 136.693 28.7606C137.28 28.0965 137.574 27.211 137.574 26.1042V13.6942H146.883ZM162.911 13.4036C166.126 13.4036 168.684 14.1784 170.584 15.7279C172.513 17.2498 173.729 19.2697 174.233 21.7877H165.553C165.189 20.4595 164.239 19.7954 162.701 19.7954C161.835 19.7954 161.402 20.1275 161.402 20.7916C161.402 21.262 161.709 21.6217 162.324 21.8707C162.967 22.1197 163.973 22.3826 165.343 22.6593C167.132 22.9913 168.656 23.3926 169.914 23.8629C171.199 24.3057 172.304 25.0389 173.226 26.0627C174.149 27.0865 174.61 28.4839 174.61 30.2547C174.61 31.6382 174.219 32.8696 173.436 33.9487C172.653 35.0278 171.507 35.8718 169.997 36.4805C168.488 37.0893 166.713 37.3936 164.672 37.3936C161.262 37.3936 158.55 36.6742 156.538 35.2354C154.525 33.7965 153.281 31.7213 152.806 29.0096H161.737C161.905 30.3654 162.869 31.0433 164.63 31.0433C165.581 31.0433 166.056 30.7113 166.056 30.0472C166.056 29.5215 165.734 29.1341 165.091 28.8851C164.449 28.636 163.414 28.387 161.989 28.138C160.172 27.7783 158.662 27.3909 157.46 26.9758C156.286 26.5608 155.252 25.8552 154.357 24.8591C153.463 23.8629 153.015 22.4933 153.015 20.7501C153.015 19.3389 153.393 18.0799 154.147 16.9731C154.902 15.8663 156.02 14.9947 157.502 14.3583C158.984 13.7219 160.787 13.4036 162.911 13.4036ZM195.119 29.2586V37.1031H191.596C185.111 37.1031 181.868 33.9072 181.868 27.5154V21.3726H178.933V13.6942H181.868V8.04948H191.177V13.6942H195.035V21.3726H191.177V27.6814C191.177 28.2348 191.303 28.636 191.555 28.8851C191.834 29.1341 192.281 29.2586 192.896 29.2586H195.119Z" fill="#FDC100"/>
<path d="M210.488 27.7644V37.1031H201.18V7.71744H214.178C217.812 7.71744 220.594 8.63055 222.523 10.4568C224.479 12.283 225.458 14.7318 225.458 17.8032C225.458 19.6571 225.025 21.345 224.158 22.8668C223.291 24.361 222.006 25.5508 220.3 26.4363C218.623 27.3217 216.582 27.7644 214.178 27.7644H210.488ZM213.13 20.501C215.059 20.501 216.023 19.6017 216.023 17.8032C216.023 16.0046 215.059 15.1054 213.13 15.1054H210.488V20.501H213.13ZM240.235 18.0107C241.185 16.6549 242.345 15.5757 243.715 14.7733C245.085 13.9432 246.51 13.5282 247.992 13.5282V23.3649H245.35C243.589 23.3649 242.289 23.6693 241.451 24.278C240.64 24.8867 240.235 25.9659 240.235 27.5154V37.1031H230.926V13.6942H240.235V18.0107ZM264.253 13.4036C266.629 13.4036 268.768 13.8879 270.669 14.8563C272.569 15.8248 274.051 17.2221 275.113 19.0483C276.203 20.8469 276.749 22.9637 276.749 25.3986C276.749 27.8336 276.203 29.9642 275.113 31.7904C274.051 33.589 272.569 34.9725 270.669 35.9409C268.768 36.9094 266.629 37.3936 264.253 37.3936C261.877 37.3936 259.739 36.9094 257.838 35.9409C255.937 34.9725 254.441 33.589 253.351 31.7904C252.289 29.9642 251.758 27.8336 251.758 25.3986C251.758 22.9637 252.289 20.8469 253.351 19.0483C254.441 17.2221 255.937 15.8248 257.838 14.8563C259.739 13.8879 261.877 13.4036 264.253 13.4036ZM264.253 21.3726C263.387 21.3726 262.66 21.7185 262.073 22.4103C261.486 23.0743 261.192 24.0705 261.192 25.3986C261.192 26.7268 261.472 27.7368 262.031 28.4285C262.618 29.0926 263.359 29.4246 264.253 29.4246C265.12 29.4246 265.846 29.0926 266.434 28.4285C267.021 27.7368 267.314 26.7268 267.314 25.3986C267.314 24.0705 267.021 23.0743 266.434 22.4103C265.846 21.7185 265.12 21.3726 264.253 21.3726Z" fill="#2E2E2E"/>
<path d="M72.7915 49.9834C73.2548 49.9834 73.6553 50.0873 73.993 50.2949C74.3385 50.4946 74.5937 50.7742 74.7586 51.1336V50.0673H77.0672V56.7889H74.7586V55.7226C74.5937 56.082 74.3385 56.3656 73.993 56.5733C73.6553 56.773 73.2548 56.8728 72.7915 56.8728C72.2654 56.8728 71.7904 56.737 71.3663 56.4654C70.9423 56.1859 70.6086 55.7865 70.3651 55.2673C70.1217 54.7401 70 54.125 70 53.4221C70 52.7192 70.1217 52.1081 70.3651 51.5889C70.6086 51.0697 70.9423 50.6743 71.3663 50.4028C71.7904 50.1232 72.2654 49.9834 72.7915 49.9834ZM73.5572 52.0442C73.1959 52.0442 72.9015 52.1681 72.6738 52.4157C72.4539 52.6553 72.344 52.9908 72.344 53.4221C72.344 53.8614 72.4539 54.2049 72.6738 54.4525C72.9015 54.6922 73.1959 54.812 73.5572 54.812C73.9027 54.812 74.1893 54.6882 74.417 54.4406C74.6447 54.1929 74.7586 53.8535 74.7586 53.4221C74.7586 52.9988 74.6447 52.6633 74.417 52.4157C74.1893 52.1681 73.9027 52.0442 73.5572 52.0442ZM89.6789 49.9834C90.205 49.9834 90.68 50.1232 91.1041 50.4028C91.5281 50.6743 91.8618 51.0697 92.1053 51.5889C92.3487 52.1081 92.4704 52.7192 92.4704 53.4221C92.4704 54.125 92.3487 54.7401 92.1053 55.2673C91.8618 55.7865 91.5281 56.1859 91.1041 56.4654C90.68 56.737 90.205 56.8728 89.6789 56.8728C89.2156 56.8728 88.8151 56.773 88.4774 56.5733C88.1398 56.3656 87.8885 56.082 87.7236 55.7226V60H85.4032V50.0673H87.7236V51.1336C87.8885 50.7742 88.1398 50.4946 88.4774 50.2949C88.8151 50.0873 89.2156 49.9834 89.6789 49.9834ZM88.9132 52.0442C88.5677 52.0442 88.2811 52.1681 88.0534 52.4157C87.8257 52.6633 87.7118 52.9988 87.7118 53.4221C87.7118 53.8535 87.8257 54.1929 88.0534 54.4406C88.2811 54.6882 88.5677 54.812 88.9132 54.812C89.2745 54.812 89.565 54.6922 89.7849 54.4525C90.0126 54.2049 90.1264 53.8614 90.1264 53.4221C90.1264 52.9908 90.0126 52.6553 89.7849 52.4157C89.565 52.1681 89.2745 52.0442 88.9132 52.0442ZM104.74 49.9834C105.267 49.9834 105.742 50.1232 106.166 50.4028C106.59 50.6743 106.923 51.0697 107.167 51.5889C107.41 52.1081 107.532 52.7192 107.532 53.4221C107.532 54.125 107.41 54.7401 107.167 55.2673C106.923 55.7865 106.59 56.1859 106.166 56.4654C105.742 56.737 105.267 56.8728 104.74 56.8728C104.277 56.8728 103.877 56.773 103.539 56.5733C103.201 56.3656 102.95 56.082 102.785 55.7226V60H100.465V50.0673H102.785V51.1336C102.95 50.7742 103.201 50.4946 103.539 50.2949C103.877 50.0873 104.277 49.9834 104.74 49.9834ZM103.975 52.0442C103.629 52.0442 103.343 52.1681 103.115 52.4157C102.887 52.6633 102.773 52.9988 102.773 53.4221C102.773 53.8535 102.887 54.1929 103.115 54.4406C103.343 54.6882 103.629 54.812 103.975 54.812C104.336 54.812 104.627 54.6922 104.846 54.4525C105.074 54.2049 105.188 53.8614 105.188 53.4221C105.188 52.9908 105.074 52.6553 104.846 52.4157C104.627 52.1681 104.336 52.0442 103.975 52.0442ZM117.846 47.9226V56.7889H115.526V47.9226H117.846ZM126.005 48.2101C126.005 47.8587 126.131 47.5711 126.382 47.3475C126.633 47.1158 126.963 47 127.371 47C127.78 47 128.105 47.1158 128.349 47.3475C128.592 47.5711 128.714 47.8587 128.714 48.2101C128.714 48.5456 128.588 48.8252 128.337 49.0488C128.094 49.2725 127.772 49.3843 127.371 49.3843C126.963 49.3843 126.633 49.2725 126.382 49.0488C126.131 48.8252 126.005 48.5456 126.005 48.2101ZM128.514 50.0673V56.7889H126.193V50.0673H128.514ZM139.311 49.9834C139.774 49.9834 140.175 50.0873 140.512 50.2949C140.858 50.4946 141.113 50.7742 141.278 51.1336V50.0673H143.586V56.7889H141.278V55.7226C141.113 56.082 140.858 56.3656 140.512 56.5733C140.175 56.773 139.774 56.8728 139.311 56.8728C138.785 56.8728 138.31 56.737 137.886 56.4654C137.462 56.1859 137.128 55.7865 136.884 55.2673C136.641 54.7401 136.519 54.125 136.519 53.4221C136.519 52.7192 136.641 52.1081 136.884 51.5889C137.128 51.0697 137.462 50.6743 137.886 50.4028C138.31 50.1232 138.785 49.9834 139.311 49.9834ZM140.076 52.0442C139.715 52.0442 139.421 52.1681 139.193 52.4157C138.973 52.6553 138.863 52.9908 138.863 53.4221C138.863 53.8614 138.973 54.2049 139.193 54.4525C139.421 54.6922 139.715 54.812 140.076 54.812C140.422 54.812 140.709 54.6882 140.936 54.4406C141.164 54.1929 141.278 53.8535 141.278 53.4221C141.278 52.9988 141.164 52.6633 140.936 52.4157C140.709 52.1681 140.422 52.0442 140.076 52.0442ZM156.339 50.0074C157.101 50.0074 157.698 50.267 158.13 50.7862C158.562 51.2974 158.778 51.9963 158.778 52.883V56.7889H156.481V53.1825C156.481 52.7911 156.379 52.4876 156.175 52.2719C155.978 52.0482 155.711 51.9364 155.374 51.9364C155.028 51.9364 154.753 52.0522 154.549 52.2839C154.345 52.5075 154.243 52.819 154.243 53.2184V56.7889H151.922V50.0673H154.243V51.1936C154.431 50.8341 154.706 50.5465 155.067 50.3309C155.429 50.1152 155.853 50.0074 156.339 50.0074ZM170.092 49.9834C170.948 49.9834 171.666 50.227 172.247 50.7143C172.828 51.1935 173.193 51.8605 173.343 52.7152H170.893C170.838 52.4836 170.736 52.3078 170.586 52.188C170.445 52.0602 170.261 51.9963 170.033 51.9963C169.75 51.9963 169.518 52.1201 169.338 52.3677C169.165 52.6074 169.079 52.9588 169.079 53.4221C169.079 53.8934 169.165 54.2488 169.338 54.4885C169.518 54.7281 169.75 54.8479 170.033 54.8479C170.261 54.8479 170.445 54.788 170.586 54.6682C170.736 54.5404 170.838 54.3607 170.893 54.129H173.343C173.193 54.9837 172.828 55.6547 172.247 56.1419C171.666 56.6292 170.948 56.8728 170.092 56.8728C169.432 56.8728 168.847 56.737 168.337 56.4654C167.834 56.1859 167.442 55.7865 167.159 55.2673C166.876 54.7401 166.735 54.125 166.735 53.4221C166.735 52.7192 166.876 52.1081 167.159 51.5889C167.442 51.0697 167.838 50.6743 168.348 50.4028C168.859 50.1232 169.44 49.9834 170.092 49.9834ZM187.692 53.3023C187.692 53.47 187.673 53.6538 187.633 53.8535H183.264C183.303 54.6123 183.629 54.9917 184.241 54.9917C184.469 54.9917 184.657 54.9358 184.807 54.824C184.956 54.7121 185.058 54.5644 185.113 54.3806H187.563C187.476 54.8519 187.284 55.2793 186.986 55.6627C186.687 56.0381 186.31 56.3336 185.855 56.5493C185.399 56.765 184.901 56.8728 184.359 56.8728C183.699 56.8728 183.114 56.737 182.604 56.4654C182.101 56.1859 181.709 55.7865 181.426 55.2673C181.143 54.7401 181.002 54.125 181.002 53.4221C181.002 52.7192 181.143 52.1081 181.426 51.5889C181.709 51.0697 182.105 50.6743 182.616 50.4028C183.126 50.1232 183.707 49.9834 184.359 49.9834C185.019 49.9834 185.6 50.1192 186.102 50.3908C186.605 50.6624 186.993 51.0498 187.268 51.553C187.551 52.0562 187.692 52.6393 187.692 53.3023ZM185.337 52.871C185.344 52.5275 185.254 52.2679 185.066 52.0922C184.877 51.9164 184.642 51.8286 184.359 51.8286C184.053 51.8286 183.801 51.9164 183.605 52.0922C183.417 52.2679 183.307 52.5275 183.275 52.871H185.337ZM207.254 51.3253C207.513 50.926 207.839 50.6065 208.232 50.3668C208.624 50.1272 209.04 50.0074 209.48 50.0074V52.5235H208.809C208.291 52.5235 207.902 52.6273 207.643 52.835C207.384 53.0347 207.254 53.3862 207.254 53.8894V56.7889H204.934V50.0673H207.254V51.3253ZM223.664 53.3023C223.664 53.47 223.644 53.6538 223.605 53.8535H219.235C219.274 54.6123 219.6 54.9917 220.212 54.9917C220.44 54.9917 220.629 54.9358 220.778 54.824C220.927 54.7121 221.029 54.5644 221.084 54.3806H223.534C223.448 54.8519 223.255 55.2793 222.957 55.6627C222.659 56.0381 222.282 56.3336 221.826 56.5493C221.371 56.765 220.872 56.8728 220.33 56.8728C219.671 56.8728 219.086 56.737 218.575 56.4654C218.073 56.1859 217.68 55.7865 217.397 55.2673C217.115 54.7401 216.973 54.125 216.973 53.4221C216.973 52.7192 217.115 52.1081 217.397 51.5889C217.68 51.0697 218.077 50.6743 218.587 50.4028C219.097 50.1232 219.679 49.9834 220.33 49.9834C220.99 49.9834 221.571 50.1192 222.074 50.3908C222.576 50.6624 222.965 51.0498 223.24 51.553C223.522 52.0562 223.664 52.6393 223.664 53.3023ZM221.308 52.871C221.316 52.5275 221.225 52.2679 221.037 52.0922C220.849 51.9164 220.613 51.8286 220.33 51.8286C220.024 51.8286 219.773 51.9164 219.576 52.0922C219.388 52.2679 219.278 52.5275 219.247 52.871H221.308ZM235.939 49.9834C236.465 49.9834 236.94 50.1232 237.364 50.4028C237.788 50.6743 238.122 51.0697 238.365 51.5889C238.609 52.1081 238.73 52.7192 238.73 53.4221C238.73 54.125 238.609 54.7401 238.365 55.2673C238.122 55.7865 237.788 56.1859 237.364 56.4654C236.94 56.737 236.465 56.8728 235.939 56.8728C235.476 56.8728 235.075 56.773 234.738 56.5733C234.4 56.3656 234.149 56.082 233.984 55.7226V60H231.663V50.0673H233.984V51.1336C234.149 50.7742 234.4 50.4946 234.738 50.2949C235.075 50.0873 235.476 49.9834 235.939 49.9834ZM235.173 52.0442C234.828 52.0442 234.541 52.1681 234.314 52.4157C234.086 52.6633 233.972 52.9988 233.972 53.4221C233.972 53.8535 234.086 54.1929 234.314 54.4406C234.541 54.6882 234.828 54.812 235.173 54.812C235.535 54.812 235.825 54.6922 236.045 54.4525C236.273 54.2049 236.387 53.8614 236.387 53.4221C236.387 52.9908 236.273 52.6553 236.045 52.4157C235.825 52.1681 235.535 52.0442 235.173 52.0442ZM249.174 49.9834C249.638 49.9834 250.038 50.0873 250.376 50.2949C250.721 50.4946 250.976 50.7742 251.141 51.1336V50.0673H253.45V56.7889H251.141V55.7226C250.976 56.082 250.721 56.3656 250.376 56.5733C250.038 56.773 249.638 56.8728 249.174 56.8728C248.648 56.8728 248.173 56.737 247.749 56.4654C247.325 56.1859 246.991 55.7865 246.748 55.2673C246.504 54.7401 246.383 54.125 246.383 53.4221C246.383 52.7192 246.504 52.1081 246.748 51.5889C246.991 51.0697 247.325 50.6743 247.749 50.4028C248.173 50.1232 248.648 49.9834 249.174 49.9834ZM249.94 52.0442C249.579 52.0442 249.284 52.1681 249.056 52.4157C248.837 52.6553 248.727 52.9908 248.727 53.4221C248.727 53.8614 248.837 54.2049 249.056 54.4525C249.284 54.6922 249.579 54.812 249.94 54.812C250.285 54.812 250.572 54.6882 250.8 54.4406C251.027 54.1929 251.141 53.8535 251.141 53.4221C251.141 52.9988 251.027 52.6633 250.8 52.4157C250.572 52.1681 250.285 52.0442 249.94 52.0442ZM261.597 48.2101C261.597 47.8587 261.723 47.5711 261.974 47.3475C262.226 47.1158 262.555 47 262.964 47C263.372 47 263.698 47.1158 263.941 47.3475C264.185 47.5711 264.307 47.8587 264.307 48.2101C264.307 48.5456 264.181 48.8252 263.93 49.0488C263.686 49.2725 263.364 49.3843 262.964 49.3843C262.555 49.3843 262.226 49.2725 261.974 49.0488C261.723 48.8252 261.597 48.5456 261.597 48.2101ZM264.106 50.0673V56.7889H261.786V50.0673H264.106ZM274.774 51.3253C275.033 50.926 275.359 50.6065 275.751 50.3668C276.144 50.1272 276.56 50.0074 277 50.0074V52.5235H276.329C275.81 52.5235 275.422 52.6273 275.163 52.835C274.903 53.0347 274.774 53.3862 274.774 53.8894V56.7889H272.453V50.0673H274.774V51.3253Z" fill="#2E2E2E"/>
<path d="M37.8158 8.22128L29.1169 5.03091L5.44811 14.2032C4.97608 19.0551 5.08398 30.5537 9.29175 37.7319L52 13.5" stroke="#FDC100" stroke-width="5"/>
<path d="M14.1516 46.5122C16.9207 49.4973 23.7151 55.9452 28.74 57.8557C36.3043 54.0083 51.4735 42.333 51.6356 26.4124" stroke="#2E2E2E" stroke-width="3"/>
<path d="M44.8359 13.0878L10.7895 34.4553L9 40L49.0889 20.0837C52.7289 22.8687 57.4274 21.5117 59.3217 20.4852C63.4943 17.9233 64.1606 13.5911 63.9715 11.7452L57.4576 15.4231C55.9574 16.2702 54.8437 15.5258 54.4744 15.0478L52.1051 10.9146C51.5012 9.71084 52.3233 8.90341 52.8098 8.65016L59.7398 4.6732C55.6139 1.95652 51.3443 3.14852 49.7252 4.08412C45.2699 6.70245 44.6093 11.1776 44.8359 13.0878Z" fill="#FDC100"/>
<path d="M50.1662 26.457L11.8779 46.0511C13.3923 48.9375 19.4357 51.053 19.6831 51.3125C19.9925 51.6368 26.5363 56.5496 27.171 56.5658C27.6788 56.5787 29.493 56.8356 30.3366 56.9627C32.3841 55.5383 36.5424 52.6905 36.7963 52.697C37.1137 52.7051 43.931 46.8663 44.2564 46.5581C44.5167 46.3116 47.2118 42.7307 48.5268 40.971L52.3153 29.3595L50.1662 26.457Z" fill="#2E2E2E"/>
<path d="M29.3992 11.3196L11.2925 18.866C11.0384 22.8907 12.0337 26.8316 12.5631 28.299L34.7994 13.2062L29.3992 11.3196Z" fill="#FDC100"/>
</svg>
