<svg width="147" height="39" viewBox="0 0 147 39" fill="none" xmlns="http://www.w3.org/2000/svg">
<path d="M8.96 31.188H20.816V38H0.0680002V1.236H8.96V31.188ZM43.932 0.663997C47.3987 0.663997 50.536 1.47866 53.344 3.108C56.1867 4.70267 58.4227 6.93867 60.052 9.816C61.6814 12.6587 62.496 15.8827 62.496 19.488C62.496 23.0933 61.664 26.3347 60 29.212C58.3707 32.0893 56.1347 34.3427 53.292 35.972C50.484 37.5667 47.364 38.364 43.932 38.364C40.5 38.364 37.3627 37.5667 34.52 35.972C31.712 34.3427 29.476 32.0893 27.812 29.212C26.1827 26.3347 25.368 23.0933 25.368 19.488C25.368 15.8827 26.1827 12.6587 27.812 9.816C29.476 6.93867 31.712 4.70267 34.52 3.108C37.3627 1.47866 40.5 0.663997 43.932 0.663997ZM43.932 8.932C41.02 8.932 38.6974 9.88533 36.964 11.792C35.2654 13.664 34.416 16.2293 34.416 19.488C34.416 22.712 35.2654 25.2773 36.964 27.184C38.6974 29.0907 41.02 30.044 43.932 30.044C46.8094 30.044 49.1147 29.0907 50.848 27.184C52.5814 25.2773 53.448 22.712 53.448 19.488C53.448 16.264 52.5814 13.6987 50.848 11.792C49.1494 9.88533 46.844 8.932 43.932 8.932ZM86.2633 0.871998C90.874 0.871998 94.67 1.99866 97.6513 4.252C100.633 6.50533 102.487 9.556 103.215 13.404H93.8033C93.1793 12.0867 92.226 11.0467 90.9433 10.284C89.6606 9.48666 88.118 9.088 86.3153 9.088C83.5073 9.088 81.254 10.0413 79.5553 11.948C77.8566 13.82 77.0073 16.368 77.0073 19.592C77.0073 23.0933 77.8913 25.78 79.6593 27.652C81.462 29.524 84.01 30.46 87.3033 30.46C89.418 30.46 91.2726 29.888 92.8673 28.744C94.462 27.5653 95.5886 25.9013 96.2473 23.752H85.0153V17.356H103.683V26.144C102.99 28.2933 101.881 30.2867 100.355 32.124C98.83 33.9613 96.8713 35.452 94.4793 36.596C92.122 37.74 89.418 38.312 86.3673 38.312C82.658 38.312 79.4166 37.532 76.6433 35.972C73.87 34.3773 71.7206 32.1587 70.1953 29.316C68.7046 26.4733 67.9593 23.232 67.9593 19.592C67.9593 15.952 68.7046 12.7107 70.1953 9.868C71.7206 7.02533 73.8526 4.824 76.5913 3.264C79.3646 1.66933 82.5886 0.871998 86.2633 0.871998ZM127.693 0.663997C131.159 0.663997 134.297 1.47866 137.105 3.108C139.947 4.70267 142.183 6.93867 143.813 9.816C145.442 12.6587 146.257 15.8827 146.257 19.488C146.257 23.0933 145.425 26.3347 143.761 29.212C142.131 32.0893 139.895 34.3427 137.053 35.972C134.245 37.5667 131.125 38.364 127.693 38.364C124.261 38.364 121.123 37.5667 118.281 35.972C115.473 34.3427 113.237 32.0893 111.573 29.212C109.943 26.3347 109.129 23.0933 109.129 19.488C109.129 15.8827 109.943 12.6587 111.573 9.816C113.237 6.93867 115.473 4.70267 118.281 3.108C121.123 1.47866 124.261 0.663997 127.693 0.663997ZM127.693 8.932C124.781 8.932 122.458 9.88533 120.725 11.792C119.026 13.664 118.177 16.2293 118.177 19.488C118.177 22.712 119.026 25.2773 120.725 27.184C122.458 29.0907 124.781 30.044 127.693 30.044C130.57 30.044 132.875 29.0907 134.609 27.184C136.342 25.2773 137.209 22.712 137.209 19.488C137.209 16.264 136.342 13.6987 134.609 11.792C132.91 9.88533 130.605 8.932 127.693 8.932Z" fill="#2E2E2E"/>
</svg>
