<svg width="436" height="97" viewBox="0 0 436 97" fill="none" xmlns="http://www.w3.org/2000/svg">
<g clip-path="url(#clip0_337_59)">
<path d="M149.089 12.272V23.888H136.681V59H122.029V23.888H109.753V12.272H149.089ZM171.675 28.64C173.171 26.484 174.997 24.768 177.153 23.492C179.309 22.172 181.553 21.512 183.885 21.512V37.154H179.727C176.955 37.154 174.909 37.638 173.589 38.606C172.313 39.574 171.675 41.29 171.675 43.754V59H157.023V21.776H171.675V28.64ZM231.194 21.776V59H216.542V53.324C215.398 55.084 213.858 56.514 211.922 57.614C210.03 58.714 207.764 59.264 205.124 59.264C200.856 59.264 197.512 57.834 195.092 54.974C192.716 52.114 191.528 48.242 191.528 43.358V21.776H206.114V41.51C206.114 43.27 206.576 44.678 207.5 45.734C208.468 46.746 209.744 47.252 211.328 47.252C212.956 47.252 214.232 46.746 215.156 45.734C216.08 44.678 216.542 43.27 216.542 41.51V21.776H231.194ZM256.423 21.314C261.483 21.314 265.509 22.546 268.501 25.01C271.537 27.43 273.451 30.642 274.243 34.646H260.581C260.009 32.534 258.513 31.478 256.093 31.478C254.729 31.478 254.047 32.006 254.047 33.062C254.047 33.81 254.531 34.382 255.499 34.778C256.511 35.174 258.095 35.592 260.251 36.032C263.067 36.56 265.465 37.198 267.445 37.946C269.469 38.65 271.207 39.816 272.659 41.444C274.111 43.072 274.837 45.294 274.837 48.11C274.837 50.31 274.221 52.268 272.989 53.984C271.757 55.7 269.953 57.042 267.577 58.01C265.201 58.978 262.407 59.462 259.195 59.462C253.827 59.462 249.559 58.318 246.391 56.03C243.223 53.742 241.265 50.442 240.517 46.13H254.575C254.839 48.286 256.357 49.364 259.129 49.364C260.625 49.364 261.373 48.836 261.373 47.78C261.373 46.944 260.867 46.328 259.855 45.932C258.843 45.536 257.215 45.14 254.971 44.744C252.111 44.172 249.735 43.556 247.843 42.896C245.995 42.236 244.367 41.114 242.959 39.53C241.551 37.946 240.847 35.768 240.847 32.996C240.847 30.752 241.441 28.75 242.629 26.99C243.817 25.23 245.577 23.844 247.909 22.832C250.241 21.82 253.079 21.314 256.423 21.314ZM307.118 46.526V59H301.574C291.366 59 286.262 53.918 286.262 43.754V33.986H281.642V21.776H286.262V12.8H300.914V21.776H306.986V33.986H300.914V44.018C300.914 44.898 301.112 45.536 301.508 45.932C301.948 46.328 302.652 46.526 303.62 46.526H307.118Z" fill="#FDC100"/>
<path d="M331.31 44.15V59H316.658V12.272H337.118C342.838 12.272 347.216 13.724 350.252 16.628C353.332 19.532 354.872 23.426 354.872 28.31C354.872 31.258 354.19 33.942 352.826 36.362C351.462 38.738 349.438 40.63 346.754 42.038C344.114 43.446 340.902 44.15 337.118 44.15H331.31ZM335.468 32.6C338.504 32.6 340.022 31.17 340.022 28.31C340.022 25.45 338.504 24.02 335.468 24.02H331.31V32.6H335.468ZM378.131 28.64C379.627 26.484 381.453 24.768 383.609 23.492C385.765 22.172 388.009 21.512 390.341 21.512V37.154H386.183C383.411 37.154 381.365 37.638 380.045 38.606C378.769 39.574 378.131 41.29 378.131 43.754V59H363.479V21.776H378.131V28.64ZM415.936 21.314C419.676 21.314 423.042 22.084 426.034 23.624C429.026 25.164 431.358 27.386 433.03 30.29C434.746 33.15 435.604 36.516 435.604 40.388C435.604 44.26 434.746 47.648 433.03 50.552C431.358 53.412 429.026 55.612 426.034 57.152C423.042 58.692 419.676 59.462 415.936 59.462C412.196 59.462 408.83 58.692 405.838 57.152C402.846 55.612 400.492 53.412 398.776 50.552C397.104 47.648 396.268 44.26 396.268 40.388C396.268 36.516 397.104 33.15 398.776 30.29C400.492 27.386 402.846 25.164 405.838 23.624C408.83 22.084 412.196 21.314 415.936 21.314ZM415.936 33.986C414.572 33.986 413.428 34.536 412.504 35.636C411.58 36.692 411.118 38.276 411.118 40.388C411.118 42.5 411.558 44.106 412.438 45.206C413.362 46.262 414.528 46.79 415.936 46.79C417.3 46.79 418.444 46.262 419.368 45.206C420.292 44.106 420.754 42.5 420.754 40.388C420.754 38.276 420.292 36.692 419.368 35.636C418.444 34.536 417.3 33.986 415.936 33.986Z" fill="#2E2E2E"/>
<path d="M117.716 79.776C118.424 79.776 119.036 79.932 119.552 80.244C120.08 80.544 120.47 80.964 120.722 81.504V79.902H124.25V90H120.722V88.398C120.47 88.938 120.08 89.364 119.552 89.676C119.036 89.976 118.424 90.126 117.716 90.126C116.912 90.126 116.186 89.922 115.538 89.514C114.89 89.094 114.38 88.494 114.008 87.714C113.636 86.922 113.45 85.998 113.45 84.942C113.45 83.886 113.636 82.968 114.008 82.188C114.38 81.408 114.89 80.814 115.538 80.406C116.186 79.986 116.912 79.776 117.716 79.776ZM118.886 82.872C118.334 82.872 117.884 83.058 117.536 83.43C117.2 83.79 117.032 84.294 117.032 84.942C117.032 85.602 117.2 86.118 117.536 86.49C117.884 86.85 118.334 87.03 118.886 87.03C119.414 87.03 119.852 86.844 120.2 86.472C120.548 86.1 120.722 85.59 120.722 84.942C120.722 84.306 120.548 83.802 120.2 83.43C119.852 83.058 119.414 82.872 118.886 82.872ZM143.523 79.776C144.327 79.776 145.053 79.986 145.701 80.406C146.349 80.814 146.859 81.408 147.231 82.188C147.603 82.968 147.789 83.886 147.789 84.942C147.789 85.998 147.603 86.922 147.231 87.714C146.859 88.494 146.349 89.094 145.701 89.514C145.053 89.922 144.327 90.126 143.523 90.126C142.815 90.126 142.203 89.976 141.687 89.676C141.171 89.364 140.787 88.938 140.535 88.398V94.824H136.989V79.902H140.535V81.504C140.787 80.964 141.171 80.544 141.687 80.244C142.203 79.932 142.815 79.776 143.523 79.776ZM142.353 82.872C141.825 82.872 141.387 83.058 141.039 83.43C140.691 83.802 140.517 84.306 140.517 84.942C140.517 85.59 140.691 86.1 141.039 86.472C141.387 86.844 141.825 87.03 142.353 87.03C142.905 87.03 143.349 86.85 143.685 86.49C144.033 86.118 144.207 85.602 144.207 84.942C144.207 84.294 144.033 83.79 143.685 83.43C143.349 83.058 142.905 82.872 142.353 82.872ZM166.54 79.776C167.344 79.776 168.07 79.986 168.718 80.406C169.366 80.814 169.876 81.408 170.248 82.188C170.62 82.968 170.806 83.886 170.806 84.942C170.806 85.998 170.62 86.922 170.248 87.714C169.876 88.494 169.366 89.094 168.718 89.514C168.07 89.922 167.344 90.126 166.54 90.126C165.832 90.126 165.22 89.976 164.704 89.676C164.188 89.364 163.804 88.938 163.552 88.398V94.824H160.006V79.902H163.552V81.504C163.804 80.964 164.188 80.544 164.704 80.244C165.22 79.932 165.832 79.776 166.54 79.776ZM165.37 82.872C164.842 82.872 164.404 83.058 164.056 83.43C163.708 83.802 163.534 84.306 163.534 84.942C163.534 85.59 163.708 86.1 164.056 86.472C164.404 86.844 164.842 87.03 165.37 87.03C165.922 87.03 166.366 86.85 166.702 86.49C167.05 86.118 167.224 85.602 167.224 84.942C167.224 84.294 167.05 83.79 166.702 83.43C166.366 83.058 165.922 82.872 165.37 82.872ZM186.568 76.68V90H183.022V76.68H186.568ZM199.036 77.112C199.036 76.584 199.228 76.152 199.612 75.816C199.996 75.468 200.5 75.294 201.124 75.294C201.748 75.294 202.246 75.468 202.618 75.816C202.99 76.152 203.176 76.584 203.176 77.112C203.176 77.616 202.984 78.036 202.6 78.372C202.228 78.708 201.736 78.876 201.124 78.876C200.5 78.876 199.996 78.708 199.612 78.372C199.228 78.036 199.036 77.616 199.036 77.112ZM202.87 79.902V90H199.324V79.902H202.87ZM219.37 79.776C220.078 79.776 220.69 79.932 221.206 80.244C221.734 80.544 222.124 80.964 222.376 81.504V79.902H225.904V90H222.376V88.398C222.124 88.938 221.734 89.364 221.206 89.676C220.69 89.976 220.078 90.126 219.37 90.126C218.566 90.126 217.84 89.922 217.192 89.514C216.544 89.094 216.034 88.494 215.662 87.714C215.29 86.922 215.104 85.998 215.104 84.942C215.104 83.886 215.29 82.968 215.662 82.188C216.034 81.408 216.544 80.814 217.192 80.406C217.84 79.986 218.566 79.776 219.37 79.776ZM220.54 82.872C219.988 82.872 219.538 83.058 219.19 83.43C218.854 83.79 218.686 84.294 218.686 84.942C218.686 85.602 218.854 86.118 219.19 86.49C219.538 86.85 219.988 87.03 220.54 87.03C221.068 87.03 221.506 86.844 221.854 86.472C222.202 86.1 222.376 85.59 222.376 84.942C222.376 84.306 222.202 83.802 221.854 83.43C221.506 83.058 221.068 82.872 220.54 82.872ZM245.393 79.812C246.557 79.812 247.469 80.202 248.129 80.982C248.789 81.75 249.119 82.8 249.119 84.132V90H245.609V84.582C245.609 83.994 245.453 83.538 245.141 83.214C244.841 82.878 244.433 82.71 243.917 82.71C243.389 82.71 242.969 82.884 242.657 83.232C242.345 83.568 242.189 84.036 242.189 84.636V90H238.643V79.902H242.189V81.594C242.477 81.054 242.897 80.622 243.449 80.298C244.001 79.974 244.649 79.812 245.393 79.812ZM266.409 79.776C267.717 79.776 268.815 80.142 269.703 80.874C270.591 81.594 271.149 82.596 271.377 83.88H267.633C267.549 83.532 267.393 83.268 267.165 83.088C266.949 82.896 266.667 82.8 266.319 82.8C265.887 82.8 265.533 82.986 265.257 83.358C264.993 83.718 264.861 84.246 264.861 84.942C264.861 85.65 264.993 86.184 265.257 86.544C265.533 86.904 265.887 87.084 266.319 87.084C266.667 87.084 266.949 86.994 267.165 86.814C267.393 86.622 267.549 86.352 267.633 86.004H271.377C271.149 87.288 270.591 88.296 269.703 89.028C268.815 89.76 267.717 90.126 266.409 90.126C265.401 90.126 264.507 89.922 263.727 89.514C262.959 89.094 262.359 88.494 261.927 87.714C261.495 86.922 261.279 85.998 261.279 84.942C261.279 83.886 261.495 82.968 261.927 82.188C262.359 81.408 262.965 80.814 263.745 80.406C264.525 79.986 265.413 79.776 266.409 79.776ZM293.306 84.762C293.306 85.014 293.276 85.29 293.216 85.59H286.538C286.598 86.73 287.096 87.3 288.032 87.3C288.38 87.3 288.668 87.216 288.896 87.048C289.124 86.88 289.28 86.658 289.364 86.382H293.108C292.976 87.09 292.682 87.732 292.226 88.308C291.77 88.872 291.194 89.316 290.498 89.64C289.802 89.964 289.04 90.126 288.212 90.126C287.204 90.126 286.31 89.922 285.53 89.514C284.762 89.094 284.162 88.494 283.73 87.714C283.298 86.922 283.082 85.998 283.082 84.942C283.082 83.886 283.298 82.968 283.73 82.188C284.162 81.408 284.768 80.814 285.548 80.406C286.328 79.986 287.216 79.776 288.212 79.776C289.22 79.776 290.108 79.98 290.876 80.388C291.644 80.796 292.238 81.378 292.658 82.134C293.09 82.89 293.306 83.766 293.306 84.762ZM289.706 84.114C289.718 83.598 289.58 83.208 289.292 82.944C289.004 82.68 288.644 82.548 288.212 82.548C287.744 82.548 287.36 82.68 287.06 82.944C286.772 83.208 286.604 83.598 286.556 84.114H289.706ZM323.2 81.792C323.596 81.192 324.094 80.712 324.694 80.352C325.294 79.992 325.93 79.812 326.602 79.812V83.592H325.576C324.784 83.592 324.19 83.748 323.794 84.06C323.398 84.36 323.2 84.888 323.2 85.644V90H319.654V79.902H323.2V81.792ZM348.277 84.762C348.277 85.014 348.247 85.29 348.187 85.59H341.509C341.569 86.73 342.067 87.3 343.003 87.3C343.351 87.3 343.639 87.216 343.867 87.048C344.095 86.88 344.251 86.658 344.335 86.382H348.079C347.947 87.09 347.653 87.732 347.197 88.308C346.741 88.872 346.165 89.316 345.469 89.64C344.773 89.964 344.011 90.126 343.183 90.126C342.175 90.126 341.281 89.922 340.501 89.514C339.733 89.094 339.133 88.494 338.701 87.714C338.269 86.922 338.053 85.998 338.053 84.942C338.053 83.886 338.269 82.968 338.701 82.188C339.133 81.408 339.739 80.814 340.519 80.406C341.299 79.986 342.187 79.776 343.183 79.776C344.191 79.776 345.079 79.98 345.847 80.388C346.615 80.796 347.209 81.378 347.629 82.134C348.061 82.89 348.277 83.766 348.277 84.762ZM344.677 84.114C344.689 83.598 344.551 83.208 344.263 82.944C343.975 82.68 343.615 82.548 343.183 82.548C342.715 82.548 342.331 82.68 342.031 82.944C341.743 83.208 341.575 83.598 341.527 84.114H344.677ZM367.036 79.776C367.84 79.776 368.566 79.986 369.214 80.406C369.862 80.814 370.372 81.408 370.744 82.188C371.116 82.968 371.302 83.886 371.302 84.942C371.302 85.998 371.116 86.922 370.744 87.714C370.372 88.494 369.862 89.094 369.214 89.514C368.566 89.922 367.84 90.126 367.036 90.126C366.328 90.126 365.716 89.976 365.2 89.676C364.684 89.364 364.3 88.938 364.048 88.398V94.824H360.502V79.902H364.048V81.504C364.3 80.964 364.684 80.544 365.2 80.244C365.716 79.932 366.328 79.776 367.036 79.776ZM365.866 82.872C365.338 82.872 364.9 83.058 364.552 83.43C364.204 83.802 364.03 84.306 364.03 84.942C364.03 85.59 364.204 86.1 364.552 86.472C364.9 86.844 365.338 87.03 365.866 87.03C366.418 87.03 366.862 86.85 367.198 86.49C367.546 86.118 367.72 85.602 367.72 84.942C367.72 84.294 367.546 83.79 367.198 83.43C366.862 83.058 366.418 82.872 365.866 82.872ZM387.262 79.776C387.97 79.776 388.582 79.932 389.098 80.244C389.626 80.544 390.016 80.964 390.268 81.504V79.902H393.796V90H390.268V88.398C390.016 88.938 389.626 89.364 389.098 89.676C388.582 89.976 387.97 90.126 387.262 90.126C386.458 90.126 385.732 89.922 385.084 89.514C384.436 89.094 383.926 88.494 383.554 87.714C383.182 86.922 382.996 85.998 382.996 84.942C382.996 83.886 383.182 82.968 383.554 82.188C383.926 81.408 384.436 80.814 385.084 80.406C385.732 79.986 386.458 79.776 387.262 79.776ZM388.432 82.872C387.88 82.872 387.43 83.058 387.082 83.43C386.746 83.79 386.578 84.294 386.578 84.942C386.578 85.602 386.746 86.118 387.082 86.49C387.43 86.85 387.88 87.03 388.432 87.03C388.96 87.03 389.398 86.844 389.746 86.472C390.094 86.1 390.268 85.59 390.268 84.942C390.268 84.306 390.094 83.802 389.746 83.43C389.398 83.058 388.96 82.872 388.432 82.872ZM406.247 77.112C406.247 76.584 406.439 76.152 406.823 75.816C407.207 75.468 407.711 75.294 408.335 75.294C408.959 75.294 409.457 75.468 409.829 75.816C410.201 76.152 410.387 76.584 410.387 77.112C410.387 77.616 410.195 78.036 409.811 78.372C409.439 78.708 408.947 78.876 408.335 78.876C407.711 78.876 407.207 78.708 406.823 78.372C406.439 78.036 406.247 77.616 406.247 77.112ZM410.081 79.902V90H406.535V79.902H410.081ZM426.383 81.792C426.779 81.192 427.277 80.712 427.877 80.352C428.477 79.992 429.113 79.812 429.785 79.812V83.592H428.759C427.967 83.592 427.373 83.748 426.977 84.06C426.581 84.36 426.383 84.888 426.383 85.644V90H422.837V79.902H426.383V81.792Z" fill="#2E2E2E"/>
<path d="M55.2476 13.0732L41.5556 8L4.30069 22.5854C3.55771 30.3008 3.72754 48.5854 10.3506 60L83 19" stroke="#FDC100" stroke-width="7"/>
<path d="M18 73.962C22.3586 78.7089 33.053 88.962 40.9622 92C52.8685 85.882 76.7449 67.3165 77 42" stroke="#2E2E2E" stroke-width="7"/>
<path d="M69.0739 18.3902L12.0001 55L9.00024 64.5L76.2034 30.3765C82.3054 35.1482 90.1818 32.8233 93.3573 31.0644C100.352 26.675 101.469 19.2525 101.152 16.0899L90.2323 22.3914C87.7174 23.8427 85.8505 22.5674 85.2314 21.7484L81.2597 14.6667C80.2473 12.6043 81.6254 11.2209 82.441 10.787L94.0581 3.97311C87.1417 -0.681494 79.9843 1.36081 77.2701 2.96381C69.8015 7.44991 68.6941 15.1173 69.0739 18.3902Z" fill="#FDC100"/>
<path d="M73.5 42L14 74.5C16.5 79 26.1 82.1 26.5 82.5C27 83 37.5 90.5 38.5 90.5C39.3 90.5 42.1667 90.833 43.5 91C46.6667 88.667 53.1 84 53.5 84C54 84 64.5 74.5 65 74C65.4 73.6 69.5 67.8333 71.5 65L77 46.5L73.5 42Z" fill="#2E2E2E"/>
<path d="M42 18L13.5 30C13.1 36.4 14.6667 42.6667 15.5 45L50.5 21L42 18Z" fill="#FDC100"/>
</g>
<defs>
<clipPath id="clip0_337_59">
<rect width="436" height="97" fill="white"/>
</clipPath>
</defs>
</svg>
