<svg width="70" height="70" viewBox="0 0 70 70" fill="none" xmlns="http://www.w3.org/2000/svg">
<rect width="70" height="70" rx="5" fill="#1C1912"/>
<path fill-rule="evenodd" clip-rule="evenodd" d="M23 13.5H32.5V12.5H23V13.5ZM37 13.5H48V12.5H37V13.5ZM20.5 15.5C20.3674 15.5 20.2402 15.5527 20.1464 15.6464L17.6464 18.1464C17.5527 18.2402 17.5 18.3674 17.5 18.5V23.5C17.5 23.7761 17.7239 24 18 24H51V23H18.5V18.7071L20.7071 16.5H50.7929L52.5 18.2071V50.7929L50.1464 53.1464C50.0527 53.2402 50 53.3674 50 53.5V56H20.5V53.5C20.5 53.3674 20.4473 53.2402 20.3536 53.1464L18.5 51.2929V26H17.5V51.5C17.5 51.6326 17.5527 51.7598 17.6464 51.8536L19.5 53.7071V56.5C19.5 56.7761 19.7239 57 20 57H50.5C50.7761 57 51 56.7761 51 56.5V53.7071L53.3536 51.3536C53.4473 51.2598 53.5 51.1326 53.5 51V18C53.5 17.8674 53.4473 17.7402 53.3536 17.6464L51.3536 15.6464C51.2598 15.5527 51.1326 15.5 51 15.5H20.5ZM21 26C20.7239 26 20.5 26.2239 20.5 26.5V49.5C20.5 49.7761 20.7239 50 21 50H50C50.2761 50 50.5 49.7761 50.5 49.5V26.5C50.5 26.2239 50.2761 26 50 26H21ZM21.5 49V27H49.5V49H21.5ZM40.7428 34.5713C40.2293 34.8793 39.624 35.5147 39.4464 36.4436C39.265 37.3922 39.5488 38.5396 40.6159 39.8201C41.0804 40.3775 41.2908 40.8321 41.361 41.1875C41.4293 41.5332 41.3704 41.8091 41.2472 42.0381C40.9844 42.5266 40.3852 42.8699 39.8626 43.0192L40.1374 43.9808C40.7814 43.7967 41.6823 43.3401 42.1278 42.5119C42.3588 42.0825 42.4561 41.571 42.3421 40.9937C42.23 40.4263 41.9196 39.8225 41.3841 39.1799C40.4512 38.0604 40.3184 37.2078 40.4286 36.6314C40.5426 36.0353 40.9374 35.6207 41.2572 35.4287L40.7428 34.5713ZM32.735 34.576C31.9989 35.036 31.3363 35.7457 31.213 36.7079C31.0886 37.679 31.5339 38.741 32.6464 39.8536C32.9486 40.1557 33.0798 40.4599 33.1127 40.7448C33.1462 41.0358 33.0812 41.3446 32.9278 41.6514C32.614 42.2791 31.9701 42.8163 31.3419 43.0257L31.6581 43.9743C32.5299 43.6837 33.386 42.9709 33.8222 42.0986C34.0438 41.6554 34.1663 41.1517 34.1061 40.6302C34.0452 40.1026 33.8014 39.5943 33.3536 39.1464C32.3567 38.1496 32.1353 37.3783 32.2049 36.835C32.2757 36.283 32.6677 35.7973 33.265 35.424L32.735 34.576ZM28 19.5C28 20.3284 27.3284 21 26.5 21C25.6716 21 25 20.3284 25 19.5C25 18.6716 25.6716 18 26.5 18C27.3284 18 28 18.6716 28 19.5ZM34 19.5C34 20.3284 33.3284 21 32.5 21C31.6716 21 31 20.3284 31 19.5C31 18.6716 31.6716 18 32.5 18C33.3284 18 34 18.6716 34 19.5ZM38.5 21C39.3284 21 40 20.3284 40 19.5C40 18.6716 39.3284 18 38.5 18C37.6716 18 37 18.6716 37 19.5C37 20.3284 37.6716 21 38.5 21ZM46 19.5C46 20.3284 45.3284 21 44.5 21C43.6716 21 43 20.3284 43 19.5C43 18.6716 43.6716 18 44.5 18C45.3284 18 46 18.6716 46 19.5Z" fill="white"/>
</svg>
