<svg width="70" height="70" viewBox="0 0 70 70" fill="none" xmlns="http://www.w3.org/2000/svg">
<rect width="70" height="70" rx="5" fill="#1C1912"/>
<path d="M18.9175 13.5723C18.8559 13.6339 18.8117 13.9242 18.8117 14.2586V14.8483L18.3011 14.9891C17.3153 15.2618 16.4353 16.0894 16.1359 17.0048C16.0039 17.4096 15.9951 19.3108 15.9951 37.881C15.9951 53.6617 16.0213 58.3436 16.1009 58.4232C16.2684 58.5906 53.7786 58.5727 53.9198 58.4053C53.9902 58.3174 54.0169 52.9221 53.9989 37.6611L53.9727 17.031L53.7349 16.5379C53.3039 15.6666 52.4676 15.024 51.5964 14.9007L51.2003 14.8479V14.2669C51.2003 13.9237 51.1561 13.633 51.0945 13.5718C50.945 13.4228 19.0675 13.4228 18.9175 13.5723ZM50.496 14.5226V14.8745H35.006H19.516V14.5226V14.1707H35.006H50.496V14.5226ZM51.8254 15.6846C52.2744 15.8166 52.8287 16.2918 53.0753 16.7582C53.2602 17.1014 53.2689 17.2247 53.2951 19.8651L53.3218 22.6108L51.9841 22.6375C50.8222 22.6637 50.6373 22.6816 50.5494 22.8137C50.479 22.9282 50.479 23.0161 50.5494 23.1219C50.6373 23.2626 50.8222 23.2801 51.9841 23.3068L53.3131 23.333V38.1101V52.8871L51.9841 52.9133C50.8222 52.9395 50.6373 52.9575 50.5494 53.0895C50.479 53.204 50.479 53.2919 50.5494 53.3977C50.6373 53.5385 50.8222 53.5559 51.9841 53.5826L53.3131 53.6088V55.7124V57.8247H35.006H16.6998V55.7124V53.6001L32.6388 53.5826C47.7153 53.5564 48.5866 53.5477 48.6832 53.3977C48.7536 53.2919 48.7536 53.204 48.6832 53.0895C48.5866 52.9487 47.7153 52.94 32.6388 52.9133L16.6998 52.8958V38.1101V23.3243L32.6388 23.3068C47.7153 23.2806 48.5866 23.2714 48.6832 23.1219C48.7536 23.0161 48.7536 22.9282 48.6832 22.8137C48.5866 22.6729 47.7153 22.6642 32.6388 22.6375L16.6911 22.62L16.7173 19.9534C16.7435 17.5154 16.7615 17.2688 16.9197 16.9431C17.1663 16.4505 17.6944 15.9661 18.2224 15.7637C18.6714 15.5875 18.9267 15.5875 35.0856 15.5875C47.2926 15.5788 51.5789 15.6055 51.8254 15.6846Z" fill="white"/>
<path d="M21.5845 17.1805C20.8453 17.4358 20.7924 17.462 20.7836 17.6999C20.7749 17.8144 20.7132 18.0343 20.6429 18.175C20.3172 18.8264 20.3613 19.4778 20.7836 20.1728C21.1709 20.8062 21.8044 21.1586 22.5528 21.1499C22.8872 21.1499 23.2041 21.0882 23.3891 20.9916C23.5565 20.9038 23.7939 20.8334 23.9084 20.8242C24.1462 20.8154 24.1812 20.7625 24.4452 19.9529C24.85 18.7381 24.4103 17.6732 23.3012 17.1718C22.7989 16.9432 22.2621 16.9519 21.5845 17.1805ZM23.1158 17.8673C23.4765 18.0435 23.7672 18.4395 23.8638 18.8706C23.9254 19.1171 23.7847 19.7156 23.6701 19.7156C23.6347 19.7156 23.1949 19.302 22.6843 18.7914C21.7956 17.9023 21.7777 17.876 21.9888 17.7882C22.3324 17.6474 22.7547 17.6824 23.1158 17.8673ZM22.9751 20.3932C22.6052 20.5514 22.3237 20.5339 21.8927 20.3053C21.2413 19.9884 20.9336 19.2137 21.2064 18.6153L21.3117 18.3862L22.2621 19.3365L23.2212 20.2869L22.9751 20.3932Z" fill="white"/>
<path d="M30.0334 17.1805C29.2942 17.4358 29.2413 17.4621 29.2326 17.6999C29.2238 17.8144 29.1622 18.0343 29.0918 18.1751C28.6079 19.1342 29.0039 20.3403 29.9805 20.8858C30.5615 21.2115 31.3357 21.2557 31.8375 20.9916C32.005 20.9038 32.2423 20.8334 32.3569 20.8242C32.5947 20.8155 32.6297 20.7626 32.8937 19.953C33.2194 18.9584 33.0082 18.1222 32.2778 17.4975C31.6618 16.9607 30.9576 16.8641 30.0334 17.1805ZM31.7409 17.9464C32.1108 18.2105 32.304 18.6153 32.3132 19.1259C32.3132 19.8826 32.1986 19.8564 31.1604 18.8177C30.245 17.8935 30.2275 17.8761 30.4299 17.7877C30.7639 17.6474 31.424 17.7266 31.7409 17.9464ZM31.424 20.3932C31.0808 20.5427 30.7901 20.5252 30.3766 20.3403C29.7252 20.05 29.3908 19.2666 29.6374 18.6502L29.7519 18.3775L30.7115 19.337L31.6706 20.2874L31.424 20.3932Z" fill="white"/>
<path d="M38.6589 17.1281C38.4652 17.2072 38.2012 17.2863 38.0691 17.313C37.7964 17.3659 37.6114 17.5416 37.6731 17.709C37.6906 17.7707 37.6381 17.9643 37.5585 18.1313C37.2154 18.8356 37.2503 19.4603 37.6818 20.1733C38.0691 20.8067 38.7026 21.159 39.451 21.1503C39.7854 21.1503 40.1023 21.0887 40.2873 20.9921C40.4542 20.9042 40.6921 20.8338 40.8066 20.8246C41.044 20.8159 41.0794 20.763 41.3347 19.9796C41.6691 18.9497 41.5458 18.325 40.8595 17.6474C40.2252 17.0048 39.451 16.8199 38.6589 17.1281ZM40.181 17.9289C40.7178 18.3337 40.9469 19.0026 40.7266 19.5481L40.612 19.8209L39.6525 18.8613L38.6938 17.9114L38.9404 17.7969C39.2661 17.6561 39.8995 17.7178 40.181 17.9289ZM39.9087 20.3931C39.6184 20.5514 39.2486 20.5339 38.8263 20.3228C38.2104 20.0325 37.9196 19.3811 38.0958 18.7298L38.1929 18.3691L39.152 19.3282C40.0757 20.2524 40.1019 20.2873 39.9087 20.3931Z" fill="white"/>
<path d="M46.9319 17.1805C46.1927 17.4358 46.1398 17.462 46.131 17.6999C46.1223 17.8144 46.0607 18.0343 45.9903 18.175C45.6646 18.8264 45.7088 19.4778 46.131 20.1728C46.5184 20.8062 47.1518 21.1586 47.9002 21.1499C48.2346 21.1499 48.5516 21.0882 48.7365 20.9916C48.9035 20.9038 49.1413 20.8334 49.2558 20.8242C49.4932 20.8154 49.5286 20.7625 49.7839 19.9792C50.1183 18.9492 49.995 18.3245 49.3087 17.647C48.6302 16.9694 47.9439 16.8286 46.9319 17.1805ZM48.6302 17.9289C49.167 18.3337 49.3961 19.0026 49.1758 19.5481L49.0612 19.8209L48.1021 18.8614L47.1426 17.911L47.3891 17.7965C47.7153 17.6562 48.3487 17.7178 48.6302 17.9289ZM48.3574 20.3932C47.9352 20.6305 47.3717 20.4898 46.9052 20.0413C46.5354 19.6894 46.4034 19.2229 46.5354 18.7298L46.6407 18.3692L47.6003 19.3283C48.5249 20.2524 48.5511 20.2874 48.3574 20.3932Z" fill="white"/>
<path d="M22.5525 25.8676C21.2323 26.1933 20.1761 27.7246 20.4843 28.8778C20.6426 29.4676 21.2852 29.7578 21.8924 29.5205C22.2622 29.371 22.5083 29.0365 22.5083 28.6934C22.5083 28.4381 22.737 28.0245 22.9044 27.9542C22.9835 27.9279 28.5371 27.9013 35.2347 27.9013C47.2485 27.9013 47.4155 27.9013 47.5917 28.0774C47.6887 28.174 47.7853 28.3502 47.8116 28.4735C47.8378 28.5968 47.8732 28.7992 47.8994 28.9225C48.0489 29.6267 49.0522 29.8553 49.6069 29.301C49.9151 29.002 49.9855 28.6497 49.8797 28.0779C49.7123 27.2067 49.1842 26.5111 48.3571 26.0714L47.8994 25.8336L35.3575 25.8161C28.458 25.8147 22.702 25.8322 22.5525 25.8676ZM47.5921 26.5893C47.8387 26.6422 48.1993 26.8092 48.4017 26.9679C49.2288 27.5926 49.5458 29.1152 48.8065 28.9307C48.6216 28.8778 48.5687 28.7987 48.525 28.4993C48.4459 28.0153 48.2081 27.6368 47.8387 27.4169C47.5484 27.2407 47.3897 27.2407 35.1827 27.2407C22.9752 27.2407 22.817 27.2407 22.5267 27.4169C22.1569 27.6368 21.9195 28.0153 21.8404 28.4993C21.7963 28.7987 21.7438 28.8778 21.5589 28.9307C21.075 29.0453 21.0046 28.4468 21.3915 27.6455C21.638 27.1528 22.1219 26.7655 22.6588 26.6156C23.2213 26.4661 46.8966 26.4394 47.5921 26.5893Z" fill="white"/>
<path d="M22.5878 31.2712C22.3766 31.3858 22.0859 31.6498 21.9364 31.8522L21.6724 32.2308V39.87V47.5092L21.9364 47.8878C22.0859 48.099 22.3766 48.3543 22.5965 48.4688L22.9926 48.6712H34.7423C42.848 48.6712 46.5975 48.645 46.8265 48.5746C47.2663 48.4513 47.8211 47.897 47.9443 47.4481C48.006 47.2102 48.0235 44.7373 48.0147 39.6681L47.9885 32.2313L47.7245 31.8527C47.5837 31.6503 47.2842 31.3862 47.0731 31.2717L46.6858 31.0693H34.8302H22.9751L22.5878 31.2712ZM30.9133 33.7092C31.9874 34.7741 32.9203 35.6458 32.9994 35.6458C33.1664 35.6458 33.4217 35.4168 33.4217 35.2673C33.4217 35.2144 32.665 34.4048 31.7316 33.4719L30.0416 31.7731H38.2972C45.7782 31.7731 46.5791 31.7906 46.7989 31.9139C47.3532 32.2483 47.327 31.8173 47.327 39.8263C47.327 47.897 47.3532 47.5451 46.7548 47.8266C46.517 47.9412 46.0947 47.9674 44.4138 47.9674H42.3544L36.8984 42.5104C33.8973 39.5094 31.3802 37.0539 31.3006 37.0539C31.1157 37.0539 30.9575 37.2301 30.9575 37.4412C30.9575 37.5645 32.6912 39.3511 36.1237 42.7924L41.2987 47.9674H32.1985C23.9429 47.9674 23.0892 47.9587 22.8605 47.8266C22.3062 47.4922 22.3325 47.9237 22.3325 39.8705C22.3325 33.2695 22.3499 32.5215 22.4732 32.3104C22.7902 31.7823 22.7989 31.7823 26.029 31.7736H28.9684L30.9133 33.7092Z" fill="white"/>
<path d="M34.5661 36.834C34.5045 36.9044 34.4783 37.0539 34.5045 37.1597C34.5749 37.415 38.0953 40.9266 38.2802 40.9266C38.4472 40.9266 38.7025 40.6976 38.7025 40.5481C38.7025 40.3898 34.9797 36.702 34.8122 36.702C34.7419 36.7015 34.6278 36.7632 34.5661 36.834Z" fill="white"/>
</svg>
