<svg width="70" height="70" viewBox="0 0 70 70" fill="none" xmlns="http://www.w3.org/2000/svg">
<rect width="70" height="70" rx="5" fill="#1C1912"/>
<path fill-rule="evenodd" clip-rule="evenodd" d="M17.0591 12.0983H17.4091H31.1936H32.3112H52.4291H52.7791V12.4483V58.4665V58.8165H52.4291H32.3112H31.1936H17.4091H17.0591V58.4665V12.4483V12.0983ZM17.7591 12.7983V58.1165H30.8436V12.7983H17.7591ZM31.5436 12.7983V58.1165H31.9612V12.7983H31.5436ZM32.6612 12.7983V58.1165H52.0791V12.7983H32.6612ZM37.5495 13.4037H37.8995H44.233H44.583V13.7537V15.3856V15.7356H44.233H37.8995H37.5495V15.3856V13.7537V13.4037ZM38.2495 14.1037V15.0356H43.883V14.1037H38.2495ZM19.667 27.764H20.017H27.0955H27.4455V28.114V35.2942V35.6442H27.0955H20.017H19.667V35.2942V28.114V27.764ZM20.367 28.464V34.9442H26.7455V28.464H20.367ZM23.0199 33.0096V29.0932H23.7199V33.0096H23.0199ZM34.2965 46.2438V33.602H34.7965V46.2438H34.2965ZM29.0808 33.602V46.2438H29.5808V33.602H29.0808Z" fill="white"/>
</svg>
