<svg width="71" height="70" viewBox="0 0 71 70" fill="none" xmlns="http://www.w3.org/2000/svg">
<path fill-rule="evenodd" clip-rule="evenodd" d="M2.73121 34.7806C2.08886 26.6325 6.27841 8.50772 28.3557 1.62089L28.0579 0.66626C5.42833 7.72537 1.06483 26.3671 1.7343 34.8592L2.73121 34.7806ZM29.4896 25.6427C28.8428 20.6937 29.4767 13.7199 33.3806 8.78335C37.1575 4.00714 44.1128 0.999275 56.3851 3.8106L47.5155 13.4838L47.2005 13.8274L47.5212 14.1657L55.7857 22.8819L56.1199 23.2345L56.482 22.9105L66.5149 13.9324C67.8459 18.7902 68.3288 25.5682 65.7604 31.0724C64.4143 33.9571 62.2282 36.4986 58.8657 38.2478C55.4971 40.0002 50.9162 40.9733 44.7612 40.6596L44.5407 40.6483L44.3838 40.8037L19.5974 65.3606C15.1755 69.4034 9.41262 68.2733 5.66353 64.9726C3.79246 63.3252 2.46748 61.1678 2.08659 58.914C1.70847 56.6766 2.25348 54.3129 4.17728 52.192L16.7705 38.3255L16.0303 37.6532L3.4368 51.52L3.4366 51.5202C1.30449 53.8706 0.671936 56.5443 1.10057 59.0806C1.52642 61.6005 2.99249 63.9533 5.00273 65.7231C9.0142 69.2549 15.3707 70.5875 20.28 66.0915L20.2872 66.0849L20.2942 66.078L44.9313 41.669C51.1033 41.9551 55.8023 40.9686 59.3272 39.135C62.9001 37.2763 65.2349 34.5634 66.6666 31.4953C69.5172 25.3863 68.7797 17.8969 67.2526 12.8836L67.0244 12.1345L66.4408 12.6567L56.1771 21.8414L48.5677 13.816L57.6977 3.85872L58.2682 3.23653L57.4484 3.03524C44.4187 -0.164099 36.7769 2.87634 32.5962 8.16307C28.5243 13.3122 27.8539 20.4534 28.4674 25.5281L24.3101 29.7133L25.0196 30.418L29.3486 26.0599L29.5214 25.8859L29.4896 25.6427ZM36.9006 68.9949C41.5625 68.6596 48.7869 66.9151 55.372 62.7684C61.968 58.6149 67.9388 52.0386 70.0186 42.0533L69.0396 41.8494C67.0264 51.5151 61.2565 57.8811 54.8392 61.9222C48.4111 65.97 41.3498 67.6724 36.8289 67.9974L36.9006 68.9949ZM9.68569 56.95C9.68569 59.0546 11.392 60.7609 13.497 60.7609C15.602 60.7609 17.3083 59.0546 17.3083 56.95C17.3083 54.8454 15.602 53.1391 13.497 53.1391C11.392 53.1391 9.68569 54.8454 9.68569 56.95ZM8.68569 56.95C8.68569 59.607 10.8398 61.7609 13.497 61.7609C16.1542 61.7609 18.3083 59.607 18.3083 56.95C18.3083 54.293 16.1542 52.1391 13.497 52.1391C10.8398 52.1391 8.68569 54.293 8.68569 56.95Z" fill="#626262"/>
<path d="M28.3557 1.62089L28.4003 1.76409L28.5435 1.71942L28.4989 1.57622L28.3557 1.62089ZM2.73121 34.7806L2.743 34.9301L2.89253 34.9183L2.88075 34.7688L2.73121 34.7806ZM28.0579 0.66626L28.2011 0.621591L28.1564 0.478397L28.0132 0.523065L28.0579 0.66626ZM1.7343 34.8592L1.58477 34.8709L1.59655 35.0205L1.74609 35.0087L1.7343 34.8592ZM33.3806 8.78335L33.4982 8.87639L33.3806 8.78335ZM29.4896 25.6427L29.6384 25.6233L29.4896 25.6427ZM56.3851 3.8106L56.4956 3.91197L56.6699 3.72195L56.4186 3.66438L56.3851 3.8106ZM47.5155 13.4838L47.6261 13.5852L47.5155 13.4838ZM47.2005 13.8274L47.0899 13.726L46.9954 13.8291L47.0916 13.9306L47.2005 13.8274ZM47.5212 14.1657L47.6301 14.0625L47.5212 14.1657ZM55.7857 22.8819L55.6768 22.9852L55.7857 22.8819ZM56.1199 23.2345L56.0111 23.3377L56.1114 23.4434L56.22 23.3462L56.1199 23.2345ZM56.482 22.9105L56.3819 22.7987L56.482 22.9105ZM66.5149 13.9324L66.6596 13.8927L66.5955 13.659L66.4149 13.8206L66.5149 13.9324ZM65.7604 31.0724L65.8963 31.1359H65.8963L65.7604 31.0724ZM58.8657 38.2478L58.9349 38.3809L58.8657 38.2478ZM44.7612 40.6596L44.7535 40.8094L44.7612 40.6596ZM44.5407 40.6483L44.5483 40.4985L44.4821 40.4952L44.4351 40.5418L44.5407 40.6483ZM44.3838 40.8037L44.2782 40.6972L44.3838 40.8037ZM19.5974 65.3606L19.6987 65.4714L19.703 65.4672L19.5974 65.3606ZM5.66353 64.9726L5.56441 65.0852L5.66353 64.9726ZM2.08659 58.914L1.93868 58.939L2.08659 58.914ZM4.17728 52.192L4.06624 52.0912L4.06618 52.0913L4.17728 52.192ZM16.7705 38.3255L16.8816 38.4264L16.9824 38.3153L16.8714 38.2145L16.7705 38.3255ZM16.0303 37.6532L16.1311 37.5422L16.0201 37.4414L15.9192 37.5524L16.0303 37.6532ZM3.4368 51.52L3.54744 51.6212L3.54784 51.6208L3.4368 51.52ZM3.4366 51.5202L3.32597 51.4189L3.3255 51.4194L3.4366 51.5202ZM1.10057 59.0806L1.24847 59.0556L1.10057 59.0806ZM5.00273 65.7231L5.10185 65.6105L5.00273 65.7231ZM20.28 66.0915L20.1787 65.9809L20.1787 65.9809L20.28 66.0915ZM20.2872 66.0849L20.3886 66.1956L20.3928 66.1915L20.2872 66.0849ZM20.2942 66.078L20.1886 65.9714L20.1886 65.9715L20.2942 66.078ZM44.9313 41.669L44.9382 41.5192L44.8724 41.5161L44.8257 41.5625L44.9313 41.669ZM59.3272 39.135L59.3964 39.268L59.3272 39.135ZM66.6666 31.4953L66.8025 31.5587H66.8025L66.6666 31.4953ZM67.2526 12.8836L67.3961 12.8399L67.2526 12.8836ZM67.0244 12.1345L67.1679 12.0908L67.0994 11.8661L66.9244 12.0228L67.0244 12.1345ZM66.4408 12.6567L66.3408 12.5449L66.4408 12.6567ZM56.1771 21.8414L56.0683 21.9446L56.1685 22.0503L56.2771 21.9532L56.1771 21.8414ZM48.5677 13.816L48.4571 13.7146L48.3626 13.8177L48.4588 13.9192L48.5677 13.816ZM57.6977 3.85872L57.5871 3.75735V3.75735L57.6977 3.85872ZM58.2682 3.23653L58.3788 3.33791L58.5499 3.15125L58.304 3.09086L58.2682 3.23653ZM57.4484 3.03524L57.4842 2.88956L57.4484 3.03524ZM32.5962 8.16307L32.4785 8.07003L32.5962 8.16307ZM28.4674 25.5281L28.5738 25.6338L28.625 25.5822L28.6163 25.5101L28.4674 25.5281ZM24.3101 29.7133L24.2037 29.6076L24.098 29.714L24.2044 29.8197L24.3101 29.7133ZM25.0196 30.418L24.9139 30.5244L25.0203 30.6301L25.126 30.5237L25.0196 30.418ZM29.3486 26.0599L29.455 26.1656V26.1656L29.3486 26.0599ZM29.5214 25.8859L29.6278 25.9916L29.6797 25.9394L29.6702 25.8665L29.5214 25.8859ZM55.372 62.7684L55.2921 62.6414L55.372 62.7684ZM36.9006 68.9949L36.751 69.0056L36.7618 69.1552L36.9114 69.1445L36.9006 68.9949ZM70.0186 42.0533L70.1654 42.0839L70.196 41.937L70.0491 41.9064L70.0186 42.0533ZM69.0396 41.8494L69.0702 41.7025L68.9233 41.6719L68.8927 41.8188L69.0396 41.8494ZM54.8392 61.9222L54.7593 61.7952L54.8392 61.9222ZM36.8289 67.9974L36.8182 67.8478L36.6685 67.8586L36.6793 68.0082L36.8289 67.9974ZM28.311 1.4777C6.15094 8.39036 1.93525 26.5927 2.58167 34.7924L2.88075 34.7688C2.24247 26.6724 6.40588 8.62509 28.4003 1.76409L28.311 1.4777ZM27.9147 0.710928L28.2125 1.66556L28.4989 1.57622L28.2011 0.621591L27.9147 0.710928ZM1.88384 34.8474C1.21843 26.4069 5.55589 7.84271 28.1025 0.809454L28.0132 0.523065C5.30077 7.60804 0.911233 26.3274 1.58477 34.8709L1.88384 34.8474ZM2.71942 34.631L1.72251 34.7096L1.74609 35.0087L2.743 34.9301L2.71942 34.631ZM33.2629 8.6903C29.324 13.6713 28.6913 20.6923 29.3409 25.6622L29.6384 25.6233C28.9943 20.695 29.6295 13.7686 33.4982 8.87639L33.2629 8.6903ZM56.4186 3.66438C44.1089 0.844503 37.0865 3.85514 33.2629 8.6903L33.4982 8.87639C37.2285 4.15914 44.1166 1.15405 56.3516 3.95681L56.4186 3.66438ZM47.6261 13.5852L56.4956 3.91197L56.2745 3.70922L47.405 13.3824L47.6261 13.5852ZM47.311 13.9288L47.6261 13.5852L47.405 13.3824L47.0899 13.726L47.311 13.9288ZM47.6301 14.0625L47.3093 13.7242L47.0916 13.9306L47.4124 14.2689L47.6301 14.0625ZM55.8945 22.7787L47.6301 14.0625L47.4124 14.2689L55.6768 22.9852L55.8945 22.7787ZM56.2288 23.1313L55.8945 22.7787L55.6768 22.9852L56.0111 23.3377L56.2288 23.1313ZM56.3819 22.7987L56.0199 23.1227L56.22 23.3462L56.582 23.0223L56.3819 22.7987ZM66.4149 13.8206L56.3819 22.7987L56.582 23.0223L66.6149 14.0442L66.4149 13.8206ZM65.8963 31.1359C68.4857 25.5867 67.9955 18.7683 66.6596 13.8927L66.3702 13.972C67.6964 18.812 68.1719 25.5497 65.6244 31.009L65.8963 31.1359ZM58.9349 38.3809C62.329 36.6153 64.5374 34.048 65.8963 31.1359L65.6244 31.009C64.2912 33.8661 62.1274 36.382 58.7965 38.1148L58.9349 38.3809ZM44.7535 40.8094C50.9274 41.1241 55.5366 40.1487 58.9349 38.3809L58.7965 38.1148C55.4576 39.8517 50.9049 40.8225 44.7688 40.5098L44.7535 40.8094ZM44.533 40.7981L44.7535 40.8094L44.7688 40.5098L44.5483 40.4985L44.533 40.7981ZM44.4894 40.9103L44.6462 40.7549L44.4351 40.5418L44.2782 40.6972L44.4894 40.9103ZM19.703 65.4672L44.4894 40.9103L44.2782 40.6972L19.4919 65.2541L19.703 65.4672ZM5.56441 65.0852C9.35276 68.4205 15.2039 69.5806 19.6987 65.4714L19.4962 65.2499C15.147 69.2261 9.47249 68.1262 5.76265 64.86L5.56441 65.0852ZM1.93868 58.939C2.32632 61.2327 3.67245 63.4194 5.56441 65.0852L5.76265 64.86C3.91247 63.231 2.60864 61.1029 2.23449 58.889L1.93868 58.939ZM4.06618 52.0913C2.11113 54.2465 1.55299 56.6567 1.93868 58.939L2.23449 58.889C1.86395 56.6964 2.39582 54.3792 4.28838 52.2928L4.06618 52.0913ZM16.6595 38.2247L4.06624 52.0912L4.28832 52.2929L16.8816 38.4264L16.6595 38.2247ZM15.9294 37.7643L16.6697 38.4366L16.8714 38.2145L16.1311 37.5422L15.9294 37.7643ZM3.54784 51.6208L16.1413 37.7541L15.9192 37.5524L3.32576 51.4191L3.54784 51.6208ZM3.54724 51.6215L3.54744 51.6212L3.32617 51.4187L3.32597 51.4189L3.54724 51.6215ZM1.24847 59.0556C0.827416 56.5641 1.44684 53.937 3.54771 51.6209L3.3255 51.4194C1.16214 53.8043 0.516455 56.5244 0.952665 59.1056L1.24847 59.0556ZM5.10185 65.6105C3.11248 63.8591 1.66758 61.5356 1.24847 59.0556L0.952665 59.1056C1.38526 61.6654 2.87251 64.0475 4.90361 65.8357L5.10185 65.6105ZM20.1787 65.9809C15.3426 70.4099 9.07448 69.1081 5.10185 65.6105L4.90361 65.8357C8.95393 69.4017 15.3989 70.765 20.3813 66.2022L20.1787 65.9809ZM20.1859 65.9743L20.1787 65.9809L20.3813 66.2022L20.3885 66.1955L20.1859 65.9743ZM20.1886 65.9715L20.1817 65.9784L20.3928 66.1915L20.3998 66.1845L20.1886 65.9715ZM44.8257 41.5625L20.1886 65.9714L20.3998 66.1846L45.0368 41.7756L44.8257 41.5625ZM59.258 39.0019C55.7625 40.8202 51.0914 41.8044 44.9382 41.5192L44.9243 41.8189C51.1152 42.1058 55.8422 41.1169 59.3964 39.268L59.258 39.0019ZM66.5306 31.4319C65.1118 34.4725 62.7993 37.1597 59.258 39.0019L59.3964 39.268C63.0009 37.393 65.3579 34.6544 66.8025 31.5587L66.5306 31.4319ZM67.1091 12.9273C68.6307 17.9224 69.3594 25.3697 66.5306 31.4319L66.8025 31.5587C69.675 25.4028 68.9288 17.8715 67.3961 12.8399L67.1091 12.9273ZM66.8809 12.1782L67.1091 12.9273L67.3961 12.8399L67.1679 12.0908L66.8809 12.1782ZM66.5409 12.7685L67.1244 12.2463L66.9244 12.0228L66.3408 12.5449L66.5409 12.7685ZM56.2771 21.9532L66.5409 12.7685L66.3408 12.5449L56.0771 21.7296L56.2771 21.9532ZM48.4588 13.9192L56.0683 21.9446L56.286 21.7382L48.6765 13.7128L48.4588 13.9192ZM57.5871 3.75735L48.4571 13.7146L48.6782 13.9174L57.8083 3.9601L57.5871 3.75735ZM58.1576 3.13516L57.5871 3.75735L57.8083 3.9601L58.3788 3.33791L58.1576 3.13516ZM57.4126 3.18091L58.2324 3.3822L58.304 3.09086L57.4842 2.88956L57.4126 3.18091ZM32.7138 8.25611C36.8465 3.0301 44.4193 -0.0095008 57.4126 3.18091L57.4842 2.88956C44.4181 -0.318697 36.7072 2.72258 32.4785 8.07003L32.7138 8.25611ZM28.6163 25.5101C28.0053 20.456 28.6766 13.3615 32.7138 8.25611L32.4785 8.07003C28.372 13.263 27.7025 20.4508 28.3184 25.5461L28.6163 25.5101ZM24.4165 29.819L28.5738 25.6338L28.3609 25.4224L24.2037 29.6076L24.4165 29.819ZM25.1253 30.3116L24.4158 29.6069L24.2044 29.8197L24.9139 30.5244L25.1253 30.3116ZM29.2422 25.9542L24.9132 30.3123L25.126 30.5237L29.455 26.1656L29.2422 25.9542ZM29.415 25.7802L29.2422 25.9542L29.455 26.1656L29.6278 25.9916L29.415 25.7802ZM29.3409 25.6622L29.3727 25.9054L29.6702 25.8665L29.6384 25.6233L29.3409 25.6622ZM55.2921 62.6414C48.7305 66.7733 41.5306 68.5115 36.8899 68.8453L36.9114 69.1445C41.5944 68.8077 48.8433 67.0569 55.452 62.8953L55.2921 62.6414ZM69.8717 42.0227C67.802 51.9601 61.8613 58.5048 55.2921 62.6414L55.452 62.8953C62.0747 58.7249 68.0757 52.1172 70.1654 42.0839L69.8717 42.0227ZM69.009 41.9962L69.988 42.2001L70.0491 41.9064L69.0702 41.7025L69.009 41.9962ZM54.9191 62.0491C61.3632 57.9912 67.1633 51.5936 69.1864 41.8799L68.8927 41.8188C66.8896 51.4366 61.1498 57.7711 54.7593 61.7952L54.9191 62.0491ZM36.8397 68.1471C41.3817 67.8204 48.4675 66.1118 54.9191 62.0491L54.7593 61.7952C48.3547 65.8282 41.3178 67.5243 36.8182 67.8478L36.8397 68.1471ZM37.0502 68.9841L36.9785 67.9867L36.6793 68.0082L36.751 69.0056L37.0502 68.9841ZM13.497 60.6109C11.4748 60.6109 9.83569 58.9718 9.83569 56.95H9.53569C9.53569 59.1375 11.3092 60.9109 13.497 60.9109V60.6109ZM17.1583 56.95C17.1583 58.9718 15.5192 60.6109 13.497 60.6109V60.9109C15.6848 60.9109 17.4583 59.1375 17.4583 56.95H17.1583ZM13.497 53.2891C15.5192 53.2891 17.1583 54.9282 17.1583 56.95H17.4583C17.4583 54.7625 15.6848 52.9891 13.497 52.9891V53.2891ZM9.83569 56.95C9.83569 54.9282 11.4748 53.2891 13.497 53.2891V52.9891C11.3092 52.9891 9.53569 54.7625 9.53569 56.95H9.83569ZM13.497 61.6109C10.9226 61.6109 8.83569 59.5241 8.83569 56.95H8.53569C8.53569 59.6898 10.757 61.9109 13.497 61.9109V61.6109ZM18.1583 56.95C18.1583 59.5241 16.0714 61.6109 13.497 61.6109V61.9109C16.237 61.9109 18.4583 59.6898 18.4583 56.95H18.1583ZM13.497 52.2891C16.0714 52.2891 18.1583 54.3759 18.1583 56.95H18.4583C18.4583 54.2102 16.237 51.9891 13.497 51.9891V52.2891ZM8.83569 56.95C8.83569 54.3759 10.9226 52.2891 13.497 52.2891V51.9891C10.757 51.9891 8.53569 54.2102 8.53569 56.95H8.83569Z" fill="#626262"/>
</svg>
