<svg width="72" height="71" viewBox="0 0 72 71" fill="none" xmlns="http://www.w3.org/2000/svg">
<path fill-rule="evenodd" clip-rule="evenodd" d="M44.505 1.59103L44.2371 1.05518L43.7578 1.41464L36.2552 7.04164L27.983 1.40153L27.5101 1.07909L27.2541 1.59103L22.7438 10.6116L12.9786 9.10926L12.3787 9.01697L12.403 9.62343L12.7783 19.0064L3.37034 22.7696L2.857 22.975L3.11275 23.4651L7.62596 32.1155L1.23622 39.257L0.851807 39.6866L1.33149 40.0064L9.21091 45.2593L6.57819 55.038L6.42098 55.6219L7.02407 55.6666L17.1749 56.4185L19.4263 65.7995L19.5584 66.3497L20.0881 66.151L29.1057 62.7694L35.4986 70.2905L35.8913 70.7525L36.27 70.279L42.2777 62.7694L51.6773 66.1533L52.2025 66.3424L52.3328 65.7995L54.5916 56.3879L63.9983 54.8828L64.5366 54.7967L64.4044 54.2678L62.1551 45.2709L70.4188 40.0122L70.9303 39.6866L70.5133 39.2465L63.7575 32.1153L68.6384 23.4799L68.9371 22.9515L68.3613 22.7595L59.3566 19.758V9.60345V9.02064L58.7805 9.10926L49.0153 10.6116L44.505 1.59103ZM23.4753 11.3848L27.8926 2.55019L35.9874 8.06936L36.2829 8.27085L36.569 8.05624L43.8785 2.5741L48.2839 11.3848L48.4469 11.7108L48.8071 11.6554L58.3566 10.1863V20.1183V20.4787L58.6985 20.5927L67.4692 23.5163L62.7051 31.945L62.5233 32.2666L62.7774 32.5349L69.3704 39.494L61.3142 44.6207L61.0102 44.8142L61.0976 45.1638L63.302 53.9815L54.1043 55.4531L53.7749 55.5058L53.6971 55.8302L51.4907 65.0233L42.28 61.7074L41.9436 61.5863L41.7202 61.8655L35.8679 69.1809L29.6401 61.8541L29.4125 61.5864L29.0835 61.7097L20.2667 65.016L18.0621 55.8302L17.9769 55.4752L17.6128 55.4482L7.70103 54.714L10.2699 45.1725L10.3633 44.8257L10.0644 44.6265L2.36587 39.4941L8.60194 32.5244L8.83268 32.2665L8.67262 31.9597L4.25508 23.4928L13.4777 19.8037L13.8058 19.6725L13.7916 19.3195L13.4265 10.1899L22.952 11.6554L23.3123 11.7108L23.4753 11.3848ZM30.7725 43.0677L47.5184 27.1007L46.8283 26.377L30.4473 41.996L24.9506 36.1329L24.221 36.8168L30.0627 43.0478L30.4075 43.4157L30.7725 43.0677ZM56.6883 35.3064C56.6883 46.7987 47.3719 56.1151 35.8796 56.1151C24.3873 56.1151 15.0709 46.7987 15.0709 35.3064C15.0709 23.8141 24.3873 14.4978 35.8796 14.4978C47.3719 14.4978 56.6883 23.8141 56.6883 35.3064ZM57.6883 35.3064C57.6883 47.351 47.9242 57.1151 35.8796 57.1151C23.835 57.1151 14.0709 47.351 14.0709 35.3064C14.0709 23.2618 23.835 13.4978 35.8796 13.4978C47.9242 13.4978 57.6883 23.2618 57.6883 35.3064Z" fill="#626262"/>
<path d="M44.2371 1.05518L44.3266 1.01045L44.273 0.903283L44.1771 0.975176L44.2371 1.05518ZM44.505 1.59103L44.5945 1.54631V1.54631L44.505 1.59103ZM43.7578 1.41464L43.6978 1.33464V1.33464L43.7578 1.41464ZM36.2552 7.04164L36.1988 7.12426L36.2579 7.16456L36.3152 7.12164L36.2552 7.04164ZM27.983 1.40153L28.0393 1.3189V1.3189L27.983 1.40153ZM27.5101 1.07909L27.5664 0.996465L27.4718 0.931977L27.4207 1.03437L27.5101 1.07909ZM27.2541 1.59103L27.3436 1.63575V1.63575L27.2541 1.59103ZM22.7438 10.6116L22.7286 10.7104L22.8007 10.7215L22.8333 10.6563L22.7438 10.6116ZM12.9786 9.10926L12.9634 9.2081L12.9786 9.10926ZM12.3787 9.01697L12.394 8.91813L12.274 8.89967L12.2788 9.02097L12.3787 9.01697ZM12.403 9.62343L12.5029 9.61943L12.403 9.62343ZM12.7783 19.0064L12.8155 19.0993L12.8811 19.073L12.8782 19.0024L12.7783 19.0064ZM3.37034 22.7696L3.40748 22.8625H3.40748L3.37034 22.7696ZM2.857 22.975L2.81986 22.8821L2.71719 22.9232L2.76834 23.0212L2.857 22.975ZM3.11275 23.4651L3.20141 23.4189L3.11275 23.4651ZM7.62596 32.1155L7.70049 32.1821L7.74664 32.1306L7.71462 32.0692L7.62596 32.1155ZM1.23622 39.257L1.16169 39.1903H1.16169L1.23622 39.257ZM0.851807 39.6866L0.777282 39.6199L0.700401 39.7058L0.796337 39.7698L0.851807 39.6866ZM1.33149 40.0064L1.38696 39.9232H1.38696L1.33149 40.0064ZM9.21091 45.2593L9.30747 45.2853L9.32614 45.216L9.26638 45.1761L9.21091 45.2593ZM6.57819 55.038L6.67476 55.064L6.57819 55.038ZM6.42098 55.6219L6.32442 55.5959L6.29297 55.7127L6.41359 55.7216L6.42098 55.6219ZM7.02407 55.6666L7.01668 55.7663L7.02407 55.6666ZM17.1749 56.4185L17.2721 56.3952L17.2551 56.3242L17.1823 56.3188L17.1749 56.4185ZM19.4263 65.7995L19.3291 65.8229L19.4263 65.7995ZM19.5584 66.3497L19.4611 66.373L19.4875 66.483L19.5935 66.4433L19.5584 66.3497ZM20.0881 66.151L20.1232 66.2446L20.0881 66.151ZM29.1057 62.7694L29.1819 62.7047L29.1364 62.6511L29.0706 62.6758L29.1057 62.7694ZM35.4986 70.2905L35.4224 70.3553L35.4986 70.2905ZM35.8913 70.7525L35.8151 70.8172L35.8936 70.9096L35.9694 70.8149L35.8913 70.7525ZM36.27 70.279L36.3481 70.3415L36.27 70.279ZM42.2777 62.7694L42.3116 62.6754L42.2443 62.6511L42.1996 62.707L42.2777 62.7694ZM51.6773 66.1533L51.6434 66.2474L51.6773 66.1533ZM52.2025 66.3424L52.1687 66.4365L52.2737 66.4743L52.2998 66.3657L52.2025 66.3424ZM52.3328 65.7995L52.2356 65.7762L52.3328 65.7995ZM54.5916 56.3879L54.5758 56.2891L54.51 56.2997L54.4944 56.3645L54.5916 56.3879ZM63.9983 54.8828L64.0141 54.9815L63.9983 54.8828ZM64.5366 54.7967L64.5524 54.8954L64.66 54.8782L64.6336 54.7724L64.5366 54.7967ZM64.4044 54.2678L64.5014 54.2436L64.4044 54.2678ZM62.1551 45.2709L62.1014 45.1865L62.0406 45.2252L62.0581 45.2951L62.1551 45.2709ZM70.4188 40.0122L70.4725 40.0965L70.4188 40.0122ZM70.9303 39.6866L70.984 39.771L71.0863 39.7059L71.0029 39.6179L70.9303 39.6866ZM70.5133 39.2465L70.4407 39.3153L70.5133 39.2465ZM63.7575 32.1153L63.6704 32.0661L63.6341 32.1305L63.6849 32.1841L63.7575 32.1153ZM68.6384 23.4799L68.5514 23.4307L68.6384 23.4799ZM68.9371 22.9515L69.0242 23.0007L69.0839 22.895L68.9687 22.8566L68.9371 22.9515ZM68.3613 22.7595L68.3929 22.6646L68.3613 22.7595ZM59.3566 19.758H59.2566V19.83L59.3249 19.8528L59.3566 19.758ZM59.3566 9.02064H59.4566V8.90408L59.3414 8.9218L59.3566 9.02064ZM58.7805 9.10926L58.7957 9.2081L58.7805 9.10926ZM49.0153 10.6116L48.9259 10.6563L48.9585 10.7215L49.0305 10.7104L49.0153 10.6116ZM27.8926 2.55019L27.9489 2.46757L27.8543 2.40308L27.8031 2.50547L27.8926 2.55019ZM23.4753 11.3848L23.5647 11.4295L23.4753 11.3848ZM35.9874 8.06936L35.931 8.15198V8.15198L35.9874 8.06936ZM36.2829 8.27085L36.2265 8.35347L36.2857 8.39377L36.3429 8.35085L36.2829 8.27085ZM36.569 8.05624L36.629 8.13624L36.569 8.05624ZM43.8785 2.5741L43.968 2.52938L43.9144 2.42221L43.8185 2.4941L43.8785 2.5741ZM48.2839 11.3848L48.3733 11.3401V11.3401L48.2839 11.3848ZM48.4469 11.7108L48.3575 11.7555L48.3901 11.8207L48.4621 11.8097L48.4469 11.7108ZM48.8071 11.6554L48.7919 11.5566L48.8071 11.6554ZM58.3566 10.1863H58.4566V10.0697L58.3414 10.0874L58.3566 10.1863ZM58.3566 20.4787H58.2566V20.5508L58.3249 20.5736L58.3566 20.4787ZM58.6985 20.5927L58.7301 20.4978L58.6985 20.5927ZM67.4692 23.5163L67.5562 23.5655L67.616 23.4598L67.5008 23.4214L67.4692 23.5163ZM62.7051 31.945L62.7922 31.9942L62.7051 31.945ZM62.5233 32.2666L62.4363 32.2174L62.3999 32.2817L62.4507 32.3354L62.5233 32.2666ZM62.7774 32.5349L62.7048 32.6036L62.7774 32.5349ZM69.3704 39.494L69.424 39.5784L69.5264 39.5133L69.4429 39.4253L69.3704 39.494ZM61.3142 44.6207L61.2605 44.5363L61.3142 44.6207ZM61.0102 44.8142L60.9565 44.7298L60.8957 44.7685L60.9132 44.8384L61.0102 44.8142ZM61.0976 45.1638L61.1946 45.1395L61.0976 45.1638ZM63.302 53.9815L63.3178 54.0802L63.4255 54.063L63.399 53.9572L63.302 53.9815ZM54.1043 55.4531L54.1201 55.5519L54.1043 55.4531ZM53.7749 55.5058L53.7591 55.4071L53.6933 55.4176L53.6777 55.4825L53.7749 55.5058ZM53.6971 55.8302L53.5998 55.8068L53.6971 55.8302ZM51.4907 65.0233L51.4569 65.1174L51.5619 65.1552L51.588 65.0466L51.4907 65.0233ZM42.28 61.7074L42.3139 61.6134L42.28 61.7074ZM41.9436 61.5863L41.9774 61.4922L41.9102 61.468L41.8655 61.5239L41.9436 61.5863ZM41.7202 61.8655L41.6421 61.8031L41.7202 61.8655ZM35.8679 69.1809L35.7917 69.2457L35.8702 69.3381L35.946 69.2434L35.8679 69.1809ZM29.6401 61.8541L29.7163 61.7893L29.6401 61.8541ZM29.4125 61.5864L29.4887 61.5216L29.4432 61.468L29.3774 61.4927L29.4125 61.5864ZM29.0835 61.7097L29.0484 61.6161L29.0835 61.7097ZM20.2667 65.016L20.1695 65.0394L20.1959 65.1494L20.3018 65.1097L20.2667 65.016ZM18.0621 55.8302L18.1593 55.8068L18.0621 55.8302ZM17.9769 55.4752L18.0741 55.4518L18.0571 55.3808L17.9843 55.3754L17.9769 55.4752ZM17.6128 55.4482L17.6054 55.5479L17.6128 55.4482ZM7.70103 54.714L7.60447 54.688L7.57302 54.8048L7.69364 54.8137L7.70103 54.714ZM10.2699 45.1725L10.3665 45.1985L10.2699 45.1725ZM10.3633 44.8257L10.4598 44.8517L10.4785 44.7823L10.4187 44.7425L10.3633 44.8257ZM10.0644 44.6265L10.1199 44.5433L10.0644 44.6265ZM2.36587 39.4941L2.29135 39.4274L2.21446 39.5134L2.3104 39.5773L2.36587 39.4941ZM8.60194 32.5244L8.67647 32.5911L8.60194 32.5244ZM8.83268 32.2665L8.90721 32.3332L8.95335 32.2816L8.92134 32.2202L8.83268 32.2665ZM8.67262 31.9597L8.76127 31.9134L8.67262 31.9597ZM4.25508 23.4928L4.21794 23.3999L4.11527 23.441L4.16642 23.539L4.25508 23.4928ZM13.4777 19.8037L13.4406 19.7108L13.4777 19.8037ZM13.8058 19.6725L13.8429 19.7653L13.9085 19.7391L13.9057 19.6685L13.8058 19.6725ZM13.7916 19.3195L13.8916 19.3155L13.7916 19.3195ZM13.4265 10.1899L13.4417 10.0911L13.3217 10.0726L13.3265 10.1939L13.4265 10.1899ZM22.952 11.6554L22.9368 11.7542L22.952 11.6554ZM23.3123 11.7108L23.2971 11.8097L23.3691 11.8207L23.4017 11.7555L23.3123 11.7108ZM47.5184 27.1007L47.5874 27.1731L47.6598 27.1041L47.5908 27.0317L47.5184 27.1007ZM30.7725 43.0677L30.8415 43.1401L30.7725 43.0677ZM46.8283 26.377L46.9007 26.3079L46.8317 26.2356L46.7593 26.3046L46.8283 26.377ZM30.4473 41.996L30.3744 42.0644L30.4433 42.138L30.5163 42.0684L30.4473 41.996ZM24.9506 36.1329L25.0235 36.0645L24.9551 35.9915L24.8822 36.0599L24.9506 36.1329ZM24.221 36.8168L24.1527 36.7438L24.0797 36.8122L24.1481 36.8852L24.221 36.8168ZM30.0627 43.0478L30.1356 42.9794L30.0627 43.0478ZM30.4075 43.4157L30.3346 43.4841L30.4035 43.5577L30.4765 43.4881L30.4075 43.4157ZM44.1477 1.0999L44.4156 1.63575L44.5945 1.54631L44.3266 1.01045L44.1477 1.0999ZM43.8178 1.49464L44.2971 1.13518L44.1771 0.975176L43.6978 1.33464L43.8178 1.49464ZM36.3152 7.12164L43.8178 1.49464L43.6978 1.33464L36.1952 6.96164L36.3152 7.12164ZM27.9267 1.48415L36.1988 7.12426L36.3115 6.95901L28.0393 1.3189L27.9267 1.48415ZM27.4538 1.16171L27.9267 1.48415L28.0393 1.3189L27.5664 0.996465L27.4538 1.16171ZM27.3436 1.63575L27.5995 1.12381L27.4207 1.03437L27.1647 1.54631L27.3436 1.63575ZM22.8333 10.6563L27.3436 1.63575L27.1647 1.54631L22.6544 10.5669L22.8333 10.6563ZM12.9634 9.2081L22.7286 10.7104L22.759 10.5128L12.9938 9.01042L12.9634 9.2081ZM12.3635 9.11581L12.9634 9.2081L12.9938 9.01042L12.394 8.91813L12.3635 9.11581ZM12.5029 9.61943L12.4787 9.01297L12.2788 9.02097L12.3031 9.62743L12.5029 9.61943ZM12.8782 19.0024L12.5029 9.61943L12.3031 9.62743L12.6784 19.0104L12.8782 19.0024ZM3.40748 22.8625L12.8155 19.0993L12.7412 18.9136L3.3332 22.6768L3.40748 22.8625ZM2.89414 23.0678L3.40748 22.8625L3.33321 22.6768L2.81986 22.8821L2.89414 23.0678ZM3.20141 23.4189L2.94566 22.9287L2.76834 23.0212L3.02409 23.5114L3.20141 23.4189ZM7.71462 32.0692L3.20141 23.4189L3.02409 23.5114L7.53731 32.1617L7.71462 32.0692ZM1.31074 39.3236L7.70049 32.1821L7.55144 32.0488L1.16169 39.1903L1.31074 39.3236ZM0.926331 39.7533L1.31074 39.3236L1.16169 39.1903L0.777282 39.6199L0.926331 39.7533ZM1.38696 39.9232L0.907277 39.6034L0.796337 39.7698L1.27602 40.0896L1.38696 39.9232ZM9.26638 45.1761L1.38696 39.9232L1.27602 40.0896L9.15544 45.3425L9.26638 45.1761ZM6.67476 55.064L9.30747 45.2853L9.11435 45.2333L6.48163 55.012L6.67476 55.064ZM6.51754 55.6479L6.67476 55.064L6.48163 55.012L6.32442 55.5959L6.51754 55.6479ZM7.03145 55.5669L6.42836 55.5222L6.41359 55.7216L7.01668 55.7663L7.03145 55.5669ZM17.1823 56.3188L7.03145 55.5669L7.01668 55.7663L17.1675 56.5182L17.1823 56.3188ZM19.5236 65.7762L17.2721 56.3952L17.0777 56.4418L19.3291 65.8229L19.5236 65.7762ZM19.6556 66.3263L19.5236 65.7762L19.3291 65.8229L19.4611 66.373L19.6556 66.3263ZM20.053 66.0574L19.5233 66.256L19.5935 66.4433L20.1232 66.2446L20.053 66.0574ZM29.0706 62.6758L20.053 66.0574L20.1232 66.2446L29.1408 62.863L29.0706 62.6758ZM35.5748 70.2257L29.1819 62.7047L29.0295 62.8342L35.4224 70.3553L35.5748 70.2257ZM35.9675 70.6877L35.5748 70.2257L35.4224 70.3553L35.8151 70.8172L35.9675 70.6877ZM36.1919 70.2166L35.8132 70.69L35.9694 70.8149L36.3481 70.3415L36.1919 70.2166ZM42.1996 62.707L36.1919 70.2166L36.3481 70.3415L42.3558 62.8319L42.1996 62.707ZM51.7112 66.0592L42.3116 62.6754L42.2438 62.8635L51.6434 66.2474L51.7112 66.0592ZM52.2364 66.2483L51.7112 66.0592L51.6434 66.2474L52.1687 66.4365L52.2364 66.2483ZM52.2356 65.7762L52.1053 66.319L52.2998 66.3657L52.4301 65.8229L52.2356 65.7762ZM54.4944 56.3645L52.2356 65.7762L52.4301 65.8229L54.6889 56.4112L54.4944 56.3645ZM63.9825 54.7841L54.5758 56.2891L54.6074 56.4866L64.0141 54.9815L63.9825 54.7841ZM64.5208 54.6979L63.9825 54.7841L64.0141 54.9815L64.5524 54.8954L64.5208 54.6979ZM64.3073 54.2921L64.4396 54.8209L64.6336 54.7724L64.5014 54.2436L64.3073 54.2921ZM62.0581 45.2951L64.3073 54.2921L64.5014 54.2436L62.2521 45.2466L62.0581 45.2951ZM70.3651 39.9278L62.1014 45.1865L62.2088 45.3552L70.4725 40.0965L70.3651 39.9278ZM70.8766 39.6023L70.3651 39.9278L70.4725 40.0965L70.984 39.771L70.8766 39.6023ZM70.4407 39.3153L70.8577 39.7554L71.0029 39.6179L70.5859 39.1777L70.4407 39.3153ZM63.6849 32.1841L70.4407 39.3153L70.5859 39.1777L63.8301 32.0466L63.6849 32.1841ZM68.5514 23.4307L63.6704 32.0661L63.8446 32.1646L68.7255 23.5291L68.5514 23.4307ZM68.85 22.9023L68.5514 23.4307L68.7255 23.5291L69.0242 23.0007L68.85 22.9023ZM68.3296 22.8544L68.9055 23.0463L68.9687 22.8566L68.3929 22.6646L68.3296 22.8544ZM59.3249 19.8528L68.3296 22.8544L68.3929 22.6646L59.3882 19.6631L59.3249 19.8528ZM59.2566 9.60345V19.758H59.4566V9.60345H59.2566ZM59.2566 9.02064V9.60345H59.4566V9.02064H59.2566ZM58.7957 9.2081L59.3718 9.11948L59.3414 8.9218L58.7653 9.01042L58.7957 9.2081ZM49.0305 10.7104L58.7957 9.2081L58.7653 9.01042L49.0001 10.5128L49.0305 10.7104ZM44.4156 1.63575L48.9259 10.6563L49.1048 10.5669L44.5945 1.54631L44.4156 1.63575ZM27.8031 2.50547L23.3858 11.3401L23.5647 11.4295L27.982 2.59491L27.8031 2.50547ZM36.0437 7.98674L27.9489 2.46757L27.8362 2.63281L35.931 8.15198L36.0437 7.98674ZM36.3392 8.18823L36.0437 7.98673L35.931 8.15198L36.2265 8.35347L36.3392 8.18823ZM36.509 7.97624L36.2229 8.19085L36.3429 8.35085L36.629 8.13624L36.509 7.97624ZM43.8185 2.4941L36.509 7.97624L36.629 8.13624L43.9385 2.6541L43.8185 2.4941ZM48.3733 11.3401L43.968 2.52938L43.7891 2.61883L48.1945 11.4295L48.3733 11.3401ZM48.5363 11.6661L48.3733 11.3401L48.1945 11.4295L48.3575 11.7555L48.5363 11.6661ZM48.7919 11.5566L48.4317 11.612L48.4621 11.8097L48.8223 11.7542L48.7919 11.5566ZM58.3414 10.0874L48.7919 11.5566L48.8223 11.7542L58.3718 10.2851L58.3414 10.0874ZM58.4566 20.1183V10.1863H58.2566V20.1183H58.4566ZM58.4566 20.4787V20.1183H58.2566V20.4787H58.4566ZM58.7301 20.4978L58.3882 20.3838L58.3249 20.5736L58.6668 20.6875L58.7301 20.4978ZM67.5008 23.4214L58.7301 20.4978L58.6668 20.6875L67.4376 23.6111L67.5008 23.4214ZM62.7922 31.9942L67.5562 23.5655L67.3821 23.467L62.6181 31.8957L62.7922 31.9942ZM62.6104 32.3158L62.7922 31.9942L62.6181 31.8957L62.4363 32.2174L62.6104 32.3158ZM62.85 32.4661L62.5959 32.1978L62.4507 32.3354L62.7048 32.6036L62.85 32.4661ZM69.4429 39.4253L62.85 32.4661L62.7048 32.6036L69.2978 39.5628L69.4429 39.4253ZM61.3679 44.705L69.424 39.5784L69.3167 39.4097L61.2605 44.5363L61.3679 44.705ZM61.0639 44.8985L61.3679 44.705L61.2605 44.5363L60.9565 44.7298L61.0639 44.8985ZM61.1946 45.1395L61.1072 44.7899L60.9132 44.8384L61.0006 45.188L61.1946 45.1395ZM63.399 53.9572L61.1946 45.1395L61.0006 45.188L63.205 54.0057L63.399 53.9572ZM54.1201 55.5519L63.3178 54.0802L63.2862 53.8827L54.0885 55.3544L54.1201 55.5519ZM53.7907 55.6046L54.1201 55.5519L54.0885 55.3544L53.7591 55.4071L53.7907 55.6046ZM53.7943 55.8535L53.8722 55.5292L53.6777 55.4825L53.5998 55.8068L53.7943 55.8535ZM51.588 65.0466L53.7943 55.8535L53.5998 55.8068L51.3935 65L51.588 65.0466ZM42.2461 61.8015L51.4569 65.1174L51.5246 64.9292L42.3139 61.6134L42.2461 61.8015ZM41.9097 61.6804L42.2461 61.8015L42.3139 61.6134L41.9774 61.4922L41.9097 61.6804ZM41.7983 61.928L42.0217 61.6488L41.8655 61.5239L41.6421 61.8031L41.7983 61.928ZM35.946 69.2434L41.7983 61.928L41.6421 61.8031L35.7898 69.1184L35.946 69.2434ZM29.5639 61.9188L35.7917 69.2457L35.9441 69.1161L29.7163 61.7893L29.5639 61.9188ZM29.3363 61.6511L29.5639 61.9188L29.7163 61.7893L29.4887 61.5216L29.3363 61.6511ZM29.1187 61.8034L29.4476 61.68L29.3774 61.4927L29.0484 61.6161L29.1187 61.8034ZM20.3018 65.1097L29.1187 61.8034L29.0484 61.6161L20.2316 64.9224L20.3018 65.1097ZM17.9648 55.8535L20.1695 65.0394L20.3639 64.9927L18.1593 55.8068L17.9648 55.8535ZM17.8797 55.4985L17.9648 55.8535L18.1593 55.8068L18.0741 55.4518L17.8797 55.4985ZM17.6054 55.5479L17.9695 55.5749L17.9843 55.3754L17.6202 55.3485L17.6054 55.5479ZM7.69364 54.8137L17.6054 55.5479L17.6202 55.3485L7.70841 54.6143L7.69364 54.8137ZM10.1733 45.1465L7.60447 54.688L7.79759 54.74L10.3665 45.1985L10.1733 45.1465ZM10.2667 44.7997L10.1733 45.1465L10.3665 45.1985L10.4598 44.8517L10.2667 44.7997ZM10.009 44.7097L10.3078 44.9089L10.4187 44.7425L10.1199 44.5433L10.009 44.7097ZM2.3104 39.5773L10.009 44.7097L10.1199 44.5433L2.42134 39.4109L2.3104 39.5773ZM8.52742 32.4577L2.29135 39.4274L2.44039 39.5608L8.67647 32.5911L8.52742 32.4577ZM8.75816 32.1998L8.52742 32.4577L8.67647 32.5911L8.90721 32.3332L8.75816 32.1998ZM8.58396 32.006L8.74402 32.3128L8.92134 32.2202L8.76127 31.9134L8.58396 32.006ZM4.16642 23.539L8.58396 32.006L8.76127 31.9134L4.34374 23.4465L4.16642 23.539ZM13.4406 19.7108L4.21794 23.3999L4.29222 23.5856L13.5149 19.8965L13.4406 19.7108ZM13.7686 19.5796L13.4406 19.7108L13.5149 19.8965L13.8429 19.7653L13.7686 19.5796ZM13.6917 19.3235L13.7058 19.6765L13.9057 19.6685L13.8916 19.3155L13.6917 19.3235ZM13.3265 10.1939L13.6917 19.3235L13.8916 19.3155L13.5264 10.1859L13.3265 10.1939ZM22.9672 11.5566L13.4417 10.0911L13.4113 10.2888L22.9368 11.7542L22.9672 11.5566ZM23.3275 11.612L22.9672 11.5566L22.9368 11.7542L23.2971 11.8097L23.3275 11.612ZM23.3858 11.3401L23.2228 11.6661L23.4017 11.7555L23.5647 11.4295L23.3858 11.3401ZM47.4494 27.0283L30.7035 42.9954L30.8415 43.1401L47.5874 27.1731L47.4494 27.0283ZM46.7559 26.446L47.446 27.1697L47.5908 27.0317L46.9007 26.3079L46.7559 26.446ZM30.5163 42.0684L46.8973 26.4493L46.7593 26.3046L30.3783 41.9237L30.5163 42.0684ZM24.8776 36.2012L30.3744 42.0644L30.5203 41.9276L25.0235 36.0645L24.8776 36.2012ZM24.2894 36.8897L25.019 36.2058L24.8822 36.0599L24.1527 36.7438L24.2894 36.8897ZM30.1356 42.9794L24.294 36.7484L24.1481 36.8852L29.9897 43.1162L30.1356 42.9794ZM30.4805 43.3473L30.1356 42.9794L29.9897 43.1162L30.3346 43.4841L30.4805 43.3473ZM30.7035 42.9954L30.3385 43.3433L30.4765 43.4881L30.8415 43.1401L30.7035 42.9954ZM35.8796 56.2151C47.4271 56.2151 56.7883 46.854 56.7883 35.3064H56.5883C56.5883 46.7435 47.3167 56.0151 35.8796 56.0151V56.2151ZM14.9709 35.3064C14.9709 46.854 24.3321 56.2151 35.8796 56.2151V56.0151C24.4425 56.0151 15.1709 46.7435 15.1709 35.3064H14.9709ZM35.8796 14.3978C24.3321 14.3978 14.9709 23.7589 14.9709 35.3064H15.1709C15.1709 23.8693 24.4425 14.5978 35.8796 14.5978V14.3978ZM56.7883 35.3064C56.7883 23.7589 47.4271 14.3978 35.8796 14.3978V14.5978C47.3167 14.5978 56.5883 23.8693 56.5883 35.3064H56.7883ZM35.8796 57.2151C47.9794 57.2151 57.7883 47.4062 57.7883 35.3064H57.5883C57.5883 47.2958 47.869 57.0151 35.8796 57.0151V57.2151ZM13.9709 35.3064C13.9709 47.4062 23.7798 57.2151 35.8796 57.2151V57.0151C23.8902 57.0151 14.1709 47.2958 14.1709 35.3064H13.9709ZM35.8796 13.3978C23.7798 13.3978 13.9709 23.2066 13.9709 35.3064H14.1709C14.1709 23.3171 23.8902 13.5978 35.8796 13.5978V13.3978ZM57.7883 35.3064C57.7883 23.2066 47.9794 13.3978 35.8796 13.3978V13.5978C47.869 13.5978 57.5883 23.3171 57.5883 35.3064H57.7883Z" fill="#626262"/>
</svg>
