<svg width="74" height="74" viewBox="0 0 74 74" fill="none" xmlns="http://www.w3.org/2000/svg">
<path d="M51.6235 70.4971C44.0637 73.7974 35.6097 74.4435 27.6362 72.3302C19.6626 70.2169 12.6384 65.4685 7.7055 58.8571C2.77262 52.2458 0.221219 44.1601 0.466109 35.9149C0.710998 27.6697 3.73778 19.7498 9.05434 13.4428C14.3709 7.13581 21.6646 2.81271 29.7495 1.17637C37.8344 -0.459979 46.2351 0.686662 53.5858 4.42986C60.9364 8.17306 66.8048 14.2927 70.2366 21.7937C73.6685 29.2948 74.462 37.7362 72.4883 45.7455" stroke="#ACA79C" stroke-width="0.9"/>
<path d="M38.0705 23.5293C40.6185 23.5293 42.6075 24.2183 44.0375 25.5963C45.4935 26.9483 46.2215 28.9763 46.2215 31.6803C46.2215 34.8783 45.2725 37.2443 43.3745 38.7783C41.5025 40.3123 38.8765 41.0793 35.4965 41.0793C34.4045 41.0793 33.2085 40.9233 31.9085 40.6113C30.6085 40.2993 29.6075 39.9353 28.9055 39.5193L30.1535 36.1263C31.6355 36.6983 33.2345 36.9843 34.9505 36.9843C36.6665 36.9843 37.9535 36.6333 38.8115 35.9313C39.6695 35.2293 40.0985 34.0983 40.0985 32.5383C40.0985 30.4323 39.6045 29.0413 38.6165 28.3653C37.8365 27.8193 36.9005 27.5463 35.8085 27.5463C34.7165 27.5463 33.2995 27.6763 31.5575 27.9363L29.9975 25.0503H29.9585V13.8573H44.3495V18.3033H34.8335V23.7633C35.6655 23.6073 36.7445 23.5293 38.0705 23.5293Z" fill="#ACA79C"/>
<path d="M23.1398 54.0302L20.0848 48.9732H22.3858L24.1668 52.2752L25.9348 48.9732H28.2488L25.1678 54.0042V57.4102H23.1398V54.0302ZM29.647 48.9732H36.082V50.4162H31.675V52.3532H35.653V53.7962H31.675V55.9672H36.212V57.4102H29.647V48.9732ZM37.9716 48.9732H41.7676C42.8943 48.9732 43.7089 49.1118 44.2116 49.3892C44.7143 49.6578 44.9656 50.1128 44.9656 50.7542V52.2362C44.9656 52.7302 44.7879 53.1202 44.4326 53.4062C44.0859 53.6835 43.6223 53.8612 43.0416 53.9392L45.4856 57.4102H43.1456L40.9356 54.0952H39.9996V57.4102H37.9716V48.9732ZM41.7416 52.7562C42.2183 52.7562 42.5433 52.6955 42.7166 52.5742C42.8899 52.4442 42.9766 52.1972 42.9766 51.8332V51.2352C42.9766 50.9232 42.8813 50.7108 42.6906 50.5982C42.5086 50.4768 42.1923 50.4162 41.7416 50.4162H39.9996V52.7562H41.7416ZM49.7752 57.5402C48.9692 57.5402 47.9725 57.4622 46.7852 57.3062V55.7592C48.2585 55.9845 49.2639 56.0972 49.8012 56.0972C50.9279 56.0972 51.4912 55.8068 51.4912 55.2262V54.6802C51.4912 54.4028 51.4089 54.1905 51.2442 54.0432C51.0882 53.8958 50.8022 53.8222 50.3862 53.8222H49.3982C47.5435 53.8222 46.6162 53.0855 46.6162 51.6122V50.9882C46.6162 50.2515 46.9239 49.7098 47.5392 49.3632C48.1545 49.0165 49.1295 48.8432 50.4642 48.8432C51.1575 48.8432 52.0372 48.8995 53.1032 49.0122V50.5202C51.7945 50.3642 50.8932 50.2862 50.3992 50.2862C49.7145 50.2862 49.2552 50.3425 49.0212 50.4552C48.7699 50.5765 48.6442 50.7672 48.6442 51.0272V51.6252C48.6442 52.0672 49.0169 52.2882 49.7622 52.2882H50.7762C51.7382 52.2882 52.4359 52.4658 52.8692 52.8212C53.3025 53.1765 53.5192 53.7182 53.5192 54.4462V55.0052C53.5192 56.0105 53.1595 56.6908 52.4402 57.0462C52.0935 57.2282 51.7079 57.3538 51.2832 57.4232C50.8672 57.5012 50.3645 57.5402 49.7752 57.5402Z" fill="#ACA79C"/>
</svg>
