<svg width="74" height="74" viewBox="0 0 74 74" fill="none" xmlns="http://www.w3.org/2000/svg">
<path d="M51.6235 70.4971C44.0637 73.7974 35.6097 74.4435 27.6362 72.3302C19.6626 70.2169 12.6384 65.4685 7.7055 58.8571C2.77262 52.2458 0.221219 44.1601 0.466109 35.9149C0.710998 27.6697 3.73778 19.7498 9.05434 13.4428C14.3709 7.13581 21.6646 2.81271 29.7495 1.17637C37.8344 -0.459979 46.2351 0.686662 53.5858 4.42986C60.9364 8.17306 66.8048 14.2927 70.2366 21.7937C73.6685 29.2948 74.462 37.7362 72.4883 45.7455" stroke="#ACA79C" stroke-width="0.9"/>
<path d="M37.6815 13.5453C43.2975 13.5453 46.1055 15.8203 46.1055 20.3703C46.1055 21.3583 45.8585 22.4113 45.3645 23.5293C44.8705 24.6213 44.2855 25.5703 43.6095 26.3763L37.9545 33.1623C37.0965 34.1503 36.0825 35.1253 34.9125 36.0873L34.2885 36.6333L34.4835 37.0623C35.6795 36.8283 36.9535 36.7113 38.3055 36.7113H41.3865C41.5685 35.2813 41.8935 34.1633 42.3615 33.3573L46.0665 33.5913C46.6385 34.5793 46.9245 36.1523 46.9245 38.3103C46.9245 39.2203 46.8335 40.0393 46.6515 40.7673H28.7505L27.8145 35.9313L37.5255 25.4013C39.3455 23.4253 40.2555 21.5273 40.2555 19.7073C40.2555 18.7713 40.0215 18.0823 39.5535 17.6403C39.0855 17.1983 38.2535 16.9773 37.0575 16.9773C35.8615 16.9773 34.8345 17.1463 33.9765 17.4843C33.7425 19.4083 33.4435 20.6693 33.0795 21.2673L29.6085 21.0723C29.1145 20.2143 28.8415 18.7713 28.7895 16.7433C28.7895 16.3013 28.8025 15.9893 28.8285 15.8073C31.1685 14.2993 34.1195 13.5453 37.6815 13.5453Z" fill="#ACA79C"/>
<path d="M23.1398 54.0302L20.0848 48.9732H22.3858L24.1668 52.2752L25.9348 48.9732H28.2488L25.1678 54.0042V57.4102H23.1398V54.0302ZM29.647 48.9732H36.082V50.4162H31.675V52.3532H35.653V53.7962H31.675V55.9672H36.212V57.4102H29.647V48.9732ZM37.9716 48.9732H41.7676C42.8943 48.9732 43.7089 49.1118 44.2116 49.3892C44.7143 49.6578 44.9656 50.1128 44.9656 50.7542V52.2362C44.9656 52.7302 44.7879 53.1202 44.4326 53.4062C44.0859 53.6835 43.6223 53.8612 43.0416 53.9392L45.4856 57.4102H43.1456L40.9356 54.0952H39.9996V57.4102H37.9716V48.9732ZM41.7416 52.7562C42.2183 52.7562 42.5433 52.6955 42.7166 52.5742C42.8899 52.4442 42.9766 52.1972 42.9766 51.8332V51.2352C42.9766 50.9232 42.8813 50.7108 42.6906 50.5982C42.5086 50.4768 42.1923 50.4162 41.7416 50.4162H39.9996V52.7562H41.7416ZM49.7752 57.5402C48.9692 57.5402 47.9725 57.4622 46.7852 57.3062V55.7592C48.2585 55.9845 49.2639 56.0972 49.8012 56.0972C50.9279 56.0972 51.4912 55.8068 51.4912 55.2262V54.6802C51.4912 54.4028 51.4089 54.1905 51.2442 54.0432C51.0882 53.8958 50.8022 53.8222 50.3862 53.8222H49.3982C47.5435 53.8222 46.6162 53.0855 46.6162 51.6122V50.9882C46.6162 50.2515 46.9239 49.7098 47.5392 49.3632C48.1545 49.0165 49.1295 48.8432 50.4642 48.8432C51.1575 48.8432 52.0372 48.8995 53.1032 49.0122V50.5202C51.7945 50.3642 50.8932 50.2862 50.3992 50.2862C49.7145 50.2862 49.2552 50.3425 49.0212 50.4552C48.7699 50.5765 48.6442 50.7672 48.6442 51.0272V51.6252C48.6442 52.0672 49.0169 52.2882 49.7622 52.2882H50.7762C51.7382 52.2882 52.4359 52.4658 52.8692 52.8212C53.3025 53.1765 53.5192 53.7182 53.5192 54.4462V55.0052C53.5192 56.0105 53.1595 56.6908 52.4402 57.0462C52.0935 57.2282 51.7079 57.3538 51.2832 57.4232C50.8672 57.5012 50.3645 57.5402 49.7752 57.5402Z" fill="#ACA79C"/>
</svg>
