<svg width="70" height="70" viewBox="0 0 70 70" fill="none" xmlns="http://www.w3.org/2000/svg">
<rect width="70" height="70" rx="5" fill="#1C1912"/>
<path d="M17.7575 12.6085C17.5937 12.7056 17.344 12.9255 17.1973 13.1016L16.939 13.4365L16.9133 29.8116L16.8962 46.1867H17.5856H18.275V30.0232V13.8593H35.5091H52.7432V35V56.1406H35.5087H18.2746V55.1277V54.1148H17.5766H16.8787L16.9133 55.3393C16.939 56.5546 16.939 56.5726 17.1977 56.8982C17.3444 57.0744 17.5942 57.2948 17.758 57.3918C18.0509 57.5501 18.6368 57.5501 35.6126 57.5326L53.1568 57.5059L53.4844 57.2414C53.6567 57.0919 53.8723 56.8361 53.9582 56.6687C54.1135 56.3692 54.122 55.6383 54.122 35C54.122 14.3616 54.1135 13.6302 53.9582 13.3307C53.8718 13.1633 53.6567 12.908 53.4844 12.758L53.1568 12.4935L35.6126 12.4673C18.6364 12.4503 18.0505 12.4503 17.7575 12.6085Z" fill="white"/>
<path d="M20.3428 18.1755V18.8802H21.3769H22.411V18.1755V17.4707H21.3769H20.3428V18.1755Z" fill="white"/>
<path d="M24.4788 18.1755V18.8802H25.5129H26.547V18.1755V17.4707H25.5129H24.4788V18.1755Z" fill="white"/>
<path d="M20.3428 22.3154V23.0201H35.5087H50.6746V22.3154V21.6107H35.5087H20.3428V22.3154Z" fill="white"/>
<path d="M33.6992 27.4688C28.5719 28.3318 24.539 32.3043 23.4275 37.581C23.1602 38.8497 23.1602 41.0866 23.4275 42.3728C24.4963 47.4641 28.3564 51.3837 33.3284 52.4146C33.8801 52.5291 34.4917 52.5733 35.5946 52.5733C37.2835 52.5733 37.9558 52.4588 39.4466 51.9569C43.781 50.4858 47.0557 46.5395 47.7878 41.9151C47.9602 40.8668 47.9516 38.9467 47.7793 37.8984C47.4692 35.9866 46.5386 33.7933 45.4096 32.2868L45.2629 32.0932L44.7629 32.5072C44.4785 32.7275 44.2459 32.9299 44.2288 32.9387C44.2117 32.9474 44.3755 33.194 44.582 33.4847C45.0739 34.1719 45.7718 35.5634 46.0472 36.4268C47.0813 39.5889 46.6507 43.1654 44.8925 46.0721C44.2895 47.0676 42.7037 48.7323 41.756 49.3579C40.8943 49.9306 39.8863 50.4237 38.9984 50.7057C36.6976 51.4458 33.7249 51.3575 31.5617 50.5033C29.0714 49.5166 26.8741 47.482 25.6933 45.0597C25.0124 43.6769 24.6506 42.135 24.5903 40.3644C24.4954 37.845 25.0817 35.6959 26.4259 33.6259C27.6926 31.6617 29.7694 30.0499 32.027 29.2835C34.147 28.5613 36.7403 28.5346 38.8949 29.2219L39.5672 29.4335L39.6622 29.2044C39.8431 28.72 39.9898 28.2793 39.9898 28.2089C39.9898 28.1211 38.8783 27.7595 38.008 27.5571C37.103 27.3543 34.6645 27.3014 33.6992 27.4688Z" fill="white"/>
<path d="M44.4703 35.8012C43.4362 35.9774 42.2298 36.8142 41.6268 37.7921C40.8685 39.0079 40.8253 40.7255 41.5233 41.9588C41.8248 42.4873 42.4971 43.2095 43.0141 43.5532C43.4965 43.8701 44.3497 44.1608 44.7804 44.1608H45.0733V43.509V42.8659L44.5819 42.7601C43.9704 42.6368 43.2634 42.2316 42.9705 41.8443C42.0142 40.5668 42.1776 38.7084 43.3237 37.7392C43.6338 37.4752 44.5558 37.1141 44.9091 37.1141C45.0558 37.1141 45.0729 37.0437 45.0729 36.4094C45.0729 36.0216 45.0472 35.7134 45.0126 35.7134C44.9703 35.7221 44.7291 35.7575 44.4703 35.8012Z" fill="white"/>
</svg>
