<svg width="70" height="70" viewBox="0 0 70 70" fill="none" xmlns="http://www.w3.org/2000/svg">
<rect width="70" height="70" rx="5" fill="#1C1912"/>
<path fill-rule="evenodd" clip-rule="evenodd" d="M17.0591 12.0983H17.4091H31.1936H32.3112H52.4291H52.7791V12.4483V24V35.5V46.9833V58.4665V58.8165H52.4291H32.3112H31.1936H17.4091H17.0591V58.4665V46.9833V35.5V24V12.4483V12.0983ZM17.7591 12.7983V23.65H52.0791V12.7983H32.3112H31.1936H17.7591ZM52.0791 24.35H17.7591V35.15H52.0791V24.35ZM52.0791 35.85H17.7591V46.6333H52.0791V35.85ZM52.0791 47.3333H17.7591V58.1165H31.1936H32.3112H52.0791V47.3333ZM25 33.3C26.8225 33.3 28.3 31.8225 28.3 30C28.3 28.1775 26.8225 26.7 25 26.7C23.1775 26.7 21.7 28.1775 21.7 30C21.7 31.8225 23.1775 33.3 25 33.3ZM25 34C27.2091 34 29 32.2091 29 30C29 27.7909 27.2091 26 25 26C22.7909 26 21 27.7909 21 30C21 32.2091 22.7909 34 25 34ZM38.3 30C38.3 31.8225 36.8225 33.3 35 33.3C33.1775 33.3 31.7 31.8225 31.7 30C31.7 28.1775 33.1775 26.7 35 26.7C36.8225 26.7 38.3 28.1775 38.3 30ZM39 30C39 32.2091 37.2091 34 35 34C32.7909 34 31 32.2091 31 30C31 27.7909 32.7909 26 35 26C37.2091 26 39 27.7909 39 30ZM45 33.3C46.8225 33.3 48.3 31.8225 48.3 30C48.3 28.1775 46.8225 26.7 45 26.7C43.1775 26.7 41.7 28.1775 41.7 30C41.7 31.8225 43.1775 33.3 45 33.3ZM45 34C47.2091 34 49 32.2091 49 30C49 27.7909 47.2091 26 45 26C42.7909 26 41 27.7909 41 30C41 32.2091 42.7909 34 45 34ZM37 54V52H33V54H37ZM43 52V54H39V52H43ZM28.3 18C28.3 19.8225 26.8225 21.3 25 21.3C23.1775 21.3 21.7 19.8225 21.7 18C21.7 16.1775 23.1775 14.7 25 14.7C26.8225 14.7 28.3 16.1775 28.3 18ZM29 18C29 20.2091 27.2091 22 25 22C22.7909 22 21 20.2091 21 18C21 15.7909 22.7909 14 25 14C27.2091 14 29 15.7909 29 18ZM35 21.3C36.8225 21.3 38.3 19.8225 38.3 18C38.3 16.1775 36.8225 14.7 35 14.7C33.1775 14.7 31.7 16.1775 31.7 18C31.7 19.8225 33.1775 21.3 35 21.3ZM35 22C37.2091 22 39 20.2091 39 18C39 15.7909 37.2091 14 35 14C32.7909 14 31 15.7909 31 18C31 20.2091 32.7909 22 35 22ZM48.3 18C48.3 19.8225 46.8225 21.3 45 21.3C43.1775 21.3 41.7 19.8225 41.7 18C41.7 16.1775 43.1775 14.7 45 14.7C46.8225 14.7 48.3 16.1775 48.3 18ZM49 18C49 20.2091 47.2091 22 45 22C42.7909 22 41 20.2091 41 18C41 15.7909 42.7909 14 45 14C47.2091 14 49 15.7909 49 18ZM25 44.3C26.8225 44.3 28.3 42.8225 28.3 41C28.3 39.1775 26.8225 37.7 25 37.7C23.1775 37.7 21.7 39.1775 21.7 41C21.7 42.8225 23.1775 44.3 25 44.3ZM25 45C27.2091 45 29 43.2091 29 41C29 38.7909 27.2091 37 25 37C22.7909 37 21 38.7909 21 41C21 43.2091 22.7909 45 25 45ZM38.3 41C38.3 42.8225 36.8225 44.3 35 44.3C33.1775 44.3 31.7 42.8225 31.7 41C31.7 39.1775 33.1775 37.7 35 37.7C36.8225 37.7 38.3 39.1775 38.3 41ZM39 41C39 43.2091 37.2091 45 35 45C32.7909 45 31 43.2091 31 41C31 38.7909 32.7909 37 35 37C37.2091 37 39 38.7909 39 41ZM45 44.3C46.8225 44.3 48.3 42.8225 48.3 41C48.3 39.1775 46.8225 37.7 45 37.7C43.1775 37.7 41.7 39.1775 41.7 41C41.7 42.8225 43.1775 44.3 45 44.3ZM45 45C47.2091 45 49 43.2091 49 41C49 38.7909 47.2091 37 45 37C42.7909 37 41 38.7909 41 41C41 43.2091 42.7909 45 45 45ZM31 52H27V54H31V52Z" fill="white"/>
</svg>
